<svg width="178" height="84" viewBox="0 0 178 84" version="1.1" xmlns="http://www.w3.org/2000/svg" xmlns:xlink="http://www.w3.org/1999/xlink">
<title>Group 2</title>
<desc>Created using Figma</desc>
<g id="Canvas" transform="translate(-29 -257)">
<g id="Group 2">
<g id="Group">
<g id="windupkey">
<g id="Vector">
<use xlink:href="#path0_fill" transform="matrix(0.619738 0.784808 -0.784808 0.619738 101.07 254)" fill="#FBB813"/>
<mask id="mask0_outline_ins">
<use xlink:href="#path0_fill" fill="white" transform="matrix(0.619738 0.784808 -0.784808 0.619738 101.07 254)"/>
</mask>
<g mask="url(#mask0_outline_ins)">
<use xlink:href="#path1_stroke_2x" transform="matrix(0.619738 0.784808 -0.784808 0.619738 101.07 254)"/>
</g>
</g>
</g>
<g id="Orion_clouds">
<g id="layer2">
<use xlink:href="#path2_fill" transform="translate(109 266.562)" fill="#FFFFFF"/>
<use xlink:href="#path3_stroke" transform="translate(109 266.562)" fill="#00B5EF"/>
</g>
<g id="layer1">
<use xlink:href="#path4_fill" transform="translate(84 278.654)" fill="#FFFFFF"/>
<use xlink:href="#path5_stroke" transform="translate(84 278.654)" fill="#00B5EF"/>
</g>
</g>
</g>
<g id="FOG TOWN TOYS">
<use xlink:href="#path6_fill" transform="translate(24 313)" fill="#FBB813"/>
<mask id="mask1_outline_out">
<rect id="mask1_outline_inv" fill="white" x="5" y="10" width="178" height="18" transform="translate(24 313)"/>
<use xlink:href="#path6_fill" fill="black" transform="translate(24 313)"/>
</mask>
<g mask="url(#mask1_outline_out)">
<use xlink:href="#path7_stroke_2x" transform="translate(24 313)"/>
</g>
</g>
</g>
</g>
<defs>
<path id="path0_fill" d="M 7.31372 2.91579e-15C 3.27522 0.000410361 0.000725809 3.70269 0.000725809 8.26877C 0.000725809 10.7026 0.936401 12.8837 2.41758 14.3975L 2.41032 14.4049C 4.31688 16.2995 4.71721 17.0702 4.71721 18.4761C 4.71721 19.8824 4.35245 20.5615 2.49707 22.4525C 0.969792 23.9684 3.15673e-07 26.186 3.15673e-07 28.6637C 3.15673e-07 33.2294 3.27486 36.9325 7.31336 36.9325L 7.31481 36.9325C 11.2528 36.9325 13.4011 34.2922 14.8104 29.8558C 16.3322 25.0661 18.1077 22.2358 21.8475 22.2358L 22.8228 22.2358C 23.5512 22.2358 24.1417 21.5702 24.1443 20.7466L 24.1443 18.4662L 24.1443 16.1859C 24.1417 15.3623 23.5512 14.6967 22.8228 14.6967L 21.8475 14.6967C 18.1077 14.6967 16.3779 11.8479 14.8104 7.07708C 13.4011 2.64026 11.2528 2.91579e-15 7.3159 2.91579e-15L 7.31445 2.91579e-15L 7.31372 2.91579e-15L 7.31372 2.91579e-15ZM 10.8201 25.9857C 11.2778 26.749 11.5449 27.6706 11.5449 28.6637L 11.5449 28.6641L 11.5449 28.6645C 11.5449 28.6793 11.5431 28.6933 11.5431 28.7076C 11.542 28.848 11.5366 28.9879 11.525 29.1258C 11.521 29.1627 11.5155 29.2005 11.5123 29.2394C 11.4992 29.3568 11.4807 29.4721 11.4611 29.5866C 11.4557 29.6178 11.4531 29.6502 11.4473 29.6814C 11.0346 31.8346 9.34187 33.4481 7.31409 33.4481C 4.9778 33.4481 3.08359 31.306 3.08359 28.6645L 3.08359 28.6637C 3.08359 26.0218 4.9778 23.8797 7.31409 23.8797C 8.77277 23.8797 10.0598 24.7156 10.8201 25.9857L 10.8201 25.9857ZM 11.4611 7.34628C 11.4807 7.46077 11.4992 7.57608 11.5123 7.69345C 11.5155 7.73202 11.521 7.77018 11.525 7.80712C 11.5366 7.945 11.5417 8.08493 11.5431 8.22527C 11.5431 8.23964 11.5449 8.25359 11.5449 8.26836L 11.5449 8.26877L 11.5449 8.26918C 11.5449 9.26226 11.2778 10.1839 10.8201 10.9472C 10.0598 12.2169 8.77277 13.0532 7.31409 13.0532C 4.9778 13.0532 3.08359 10.9111 3.08359 8.26918L 3.08359 8.26877C 3.08359 5.62728 4.9778 3.4852 7.31409 3.4852C 9.34187 3.4852 11.0346 5.09832 11.4473 7.2519C 11.4531 7.28268 11.4557 7.31509 11.4611 7.34628L 11.4611 7.34628Z"/>
<path id="path1_stroke_2x" d="M 2.41758 14.3975L 3.13084 15.0984L 3.81811 14.399L 3.13235 13.6982L 2.41758 14.3975ZM 2.41032 14.4049L 1.69706 13.704L 1.00008 14.4133L 1.70544 15.1142L 2.41032 14.4049ZM 2.49707 22.4525L 3.20158 23.1623L 3.21086 23.1529L 2.49707 22.4525ZM 14.8104 29.8558L 13.8573 29.553L 13.8573 29.553L 14.8104 29.8558ZM 24.1443 20.7466L 25.1443 20.7497L 25.1443 20.7466L 24.1443 20.7466ZM 24.1443 16.1859L 25.1443 16.1859L 25.1442 16.1828L 24.1443 16.1859ZM 14.8104 7.07708L 13.8573 7.37984L 13.8603 7.38924L 14.8104 7.07708ZM 11.5431 28.7076L 12.5431 28.7154L 12.5431 28.7076L 11.5431 28.7076ZM 11.525 29.1258L 12.5192 29.2333L 12.5205 29.2215L 12.5215 29.2097L 11.525 29.1258ZM 11.5123 29.2394L 12.5061 29.3501L 12.5077 29.3365L 12.5088 29.3229L 11.5123 29.2394ZM 11.4611 29.5866L 12.4462 29.7586L 12.4468 29.7553L 11.4611 29.5866ZM 11.4473 29.6814L 12.4295 29.8696L 12.4304 29.8645L 11.4473 29.6814ZM 11.5123 7.69345L 12.5087 7.60907L 12.5076 7.59592L 12.5061 7.5828L 11.5123 7.69345ZM 11.525 7.80712L 12.5215 7.72318L 12.5205 7.7114L 12.5192 7.69964L 11.525 7.80712ZM 11.5431 8.22527L 12.5432 8.22527L 12.5431 8.21493L 11.5431 8.22527ZM 10.8201 10.9472L 9.96251 10.4329L 9.96223 10.4334L 10.8201 10.9472ZM 11.4473 7.2519L 12.43 7.06649L 12.4294 7.0637L 11.4473 7.2519ZM 7.31362 -1C 2.61108 -0.999522 -0.999274 3.2693 -0.999274 8.26877L 1.00073 8.26877C 1.00073 4.13607 3.93937 1.00034 7.31382 1L 7.31362 -1ZM -0.999274 8.26877C -0.999274 10.9586 0.0349996 13.3923 1.70281 15.0969L 3.13235 13.6982C 1.8378 12.3751 1.00073 10.4466 1.00073 8.26877L -0.999274 8.26877ZM 1.70432 13.6966L 1.69706 13.704L 3.12359 15.1058L 3.13084 15.0984L 1.70432 13.6966ZM 1.70544 15.1142C 2.65398 16.0568 3.14148 16.6389 3.40589 17.1118C 3.67634 17.568 3.72134 17.864 3.71721 18.4761L 5.71721 18.4761C 5.71308 17.6823 5.55791 16.89 5.15155 16.1357C 4.73917 15.3982 4.07323 14.6476 3.11521 13.6956L 1.70544 15.1142ZM 3.71721 18.4761C 3.72095 19.0928 3.68326 19.3671 3.42863 19.7971C 3.17847 20.2477 2.71299 20.8046 1.78328 21.7521L 3.21086 23.1529C 4.13653 22.2094 4.78112 21.4813 5.17718 20.768C 5.56877 20.0341 5.71346 19.2657 5.71721 18.4761L 3.71721 18.4761ZM 1.79262 21.7427C 0.0717398 23.4508 -1 25.9258 -1 28.6637L 1 28.6637C 1 26.4461 1.86784 24.486 3.20152 23.1622L 1.79262 21.7427ZM -1 28.6637C -1 33.6627 2.61068 37.9325 7.31336 37.9325L 7.31336 35.9325C 3.93904 35.9325 1 32.7961 1 28.6637L -1 28.6637ZM 7.31336 37.9325L 7.31481 37.9325L 7.31481 35.9325L 7.31336 35.9325L 7.31336 37.9325ZM 7.31481 37.9325C 9.53941 37.9325 11.3198 37.1736 12.7206 35.7622C 14.0871 34.3854 15.0376 32.4434 15.7634 30.1586L 13.8573 29.553C 13.1738 31.7047 12.3455 33.301 11.3011 34.3534C 10.2909 35.3712 9.02817 35.9325 7.31481 35.9325L 7.31481 37.9325ZM 15.7634 30.1586C 16.5167 27.7879 17.2935 26.0424 18.2617 24.8943C 19.1812 23.8039 20.2845 23.2358 21.8475 23.2358L 21.8475 21.2358C 19.6707 21.2358 18.0164 22.0829 16.7328 23.605C 15.4978 25.0695 14.6259 27.134 13.8573 29.553L 15.7634 30.1586ZM 21.8475 23.2358L 22.8228 23.2358L 22.8228 21.2358L 21.8475 21.2358L 21.8475 23.2358ZM 22.8228 23.2358C 24.2139 23.2358 25.1404 22.0057 25.1442 20.7497L 23.1443 20.7435C 23.1437 20.918 23.081 21.0538 23.0077 21.1364C 22.9362 21.217 22.869 21.2358 22.8228 21.2358L 22.8228 23.2358ZM 25.1443 20.7466L 25.1443 18.4662L 23.1443 18.4662L 23.1443 20.7466L 25.1443 20.7466ZM 25.1443 18.4662L 25.1443 16.1859L 23.1443 16.1859L 23.1443 18.4662L 25.1443 18.4662ZM 25.1442 16.1828C 25.1404 14.9267 24.2139 13.6967 22.8228 13.6967L 22.8228 15.6967C 22.869 15.6967 22.9362 15.7155 23.0077 15.7961C 23.081 15.8787 23.1437 16.0145 23.1443 16.189L 25.1442 16.1828ZM 22.8228 13.6967L 21.8475 13.6967L 21.8475 15.6967L 22.8228 15.6967L 22.8228 13.6967ZM 21.8475 13.6967C 20.2884 13.6967 19.1967 13.1272 18.281 12.0339C 17.3153 10.8807 16.5383 9.13253 15.7604 6.76493L 13.8603 7.38924C 14.65 9.79249 15.5217 11.8541 16.7477 13.318C 18.0238 14.8417 19.6668 15.6967 21.8475 15.6967L 21.8475 13.6967ZM 15.7634 6.77435C 15.0376 4.48934 14.0871 2.54728 12.7208 1.17036C 11.3202 -0.241082 9.54004 -1 7.3159 -1L 7.3159 1C 9.02864 1 10.2911 1.56121 11.3011 2.57911C 12.3455 3.63153 13.1738 5.228 13.8573 7.37982L 15.7634 6.77435ZM 7.3159 -1L 7.31445 -1L 7.31445 1L 7.3159 1L 7.3159 -1ZM 7.31445 -1L 7.31372 -1L 7.31372 1L 7.31445 1L 7.31445 -1ZM 9.96251 26.5C 10.3611 27.1486 10.5549 27.8112 10.5449 28.6637L 12.5449 28.6637C 12.535 27.5301 12.1945 26.3493 11.6778 25.4714L 9.96251 26.5ZM 10.5449 28.6637L 10.5449 28.6641L 12.5449 28.6641L 12.5449 28.6637L 10.5449 28.6637ZM 10.5449 28.6641L 10.5449 28.6645L 12.5449 28.6645L 12.5449 28.6641L 10.5449 28.6641ZM 10.5449 28.6645C 10.5449 28.648 10.5455 28.6352 10.5458 28.6284C 10.5461 28.6225 10.5464 28.6181 10.5461 28.6227C 10.5459 28.6247 10.5452 28.6363 10.5446 28.6491C 10.5439 28.663 10.5431 28.6833 10.5431 28.7076L 12.5431 28.7076C 12.5431 28.7247 12.5426 28.7379 12.5423 28.7447C 12.542 28.7504 12.5417 28.7548 12.542 28.7497C 12.5422 28.7473 12.5429 28.7357 12.5436 28.7226C 12.5442 28.7085 12.5449 28.6884 12.5449 28.6645L 10.5449 28.6645ZM 10.5432 28.6999C 10.5423 28.8246 10.5385 28.9265 10.5285 29.0418L 12.5215 29.2097C 12.5347 29.0493 12.5418 28.8713 12.5431 28.7154L 10.5432 28.6999ZM 10.5308 29.0183C 10.5289 29.0376 10.522 29.0873 10.5158 29.1559L 12.5088 29.3229C 12.5089 29.3217 12.5094 29.3167 12.5113 29.3008C 12.5125 29.2905 12.5164 29.2594 12.5192 29.2333L 10.5308 29.0183ZM 10.5184 29.1288C 10.5083 29.2222 10.4942 29.3085 10.4754 29.4179L 12.4468 29.7553C 12.4672 29.6357 12.4901 29.4914 12.5061 29.3501L 10.5184 29.1288ZM 10.476 29.4146C 10.4719 29.4379 10.469 29.4583 10.4669 29.4732C 10.4651 29.4866 10.4634 29.4994 10.4625 29.5067C 10.4602 29.5247 10.4613 29.5142 10.4642 29.4984L 12.4304 29.8645C 12.4392 29.8174 12.4444 29.7751 12.4462 29.7614C 12.4491 29.7387 12.4482 29.7473 12.4462 29.7586L 10.476 29.4146ZM 10.4652 29.4932C 10.1243 31.2716 8.77036 32.4481 7.31409 32.4481L 7.31409 34.4481C 9.91337 34.4481 11.9449 32.3976 12.4294 29.8696L 10.4652 29.4932ZM 7.31409 32.4481C 5.64206 32.4481 4.08359 30.8728 4.08359 28.6645L 2.08359 28.6645C 2.08359 31.7393 4.31355 34.4481 7.31409 34.4481L 7.31409 32.4481ZM 4.08359 28.6645L 4.08359 28.6637L 2.08359 28.6637L 2.08359 28.6645L 4.08359 28.6645ZM 4.08359 28.6637C 4.08359 26.455 5.64211 24.8797 7.31409 24.8797L 7.31409 22.8797C 4.3135 22.8797 2.08359 25.5886 2.08359 28.6637L 4.08359 28.6637ZM 7.31409 24.8797C 8.36945 24.8797 9.35415 25.4838 9.96215 26.4994L 11.6781 25.472C 10.7654 23.9475 9.17609 22.8797 7.31409 22.8797L 7.31409 24.8797ZM 10.4754 7.51501C 10.4942 7.62439 10.5083 7.71069 10.5184 7.80409L 12.5061 7.5828C 12.4901 7.44147 12.4672 7.29716 12.4468 7.17755L 10.4754 7.51501ZM 10.5158 7.77783C 10.5219 7.84487 10.5288 7.89455 10.5308 7.91459L 12.5192 7.69964C 12.5164 7.67371 12.5126 7.64305 12.5113 7.63222C 12.5094 7.61601 12.5089 7.61066 12.5087 7.60907L 10.5158 7.77783ZM 10.5285 7.89105C 10.5384 8.00513 10.542 8.10825 10.5432 8.23562L 12.5431 8.21493C 12.5414 8.06161 12.5348 7.88487 12.5215 7.72318L 10.5285 7.89105ZM 10.5431 8.22527C 10.5431 8.24958 10.5439 8.26992 10.5446 8.28375C 10.5452 8.29658 10.5459 8.30816 10.5461 8.31018C 10.5464 8.31483 10.5461 8.31039 10.5458 8.3045C 10.5455 8.29769 10.5449 8.28487 10.5449 8.26836L 12.5449 8.26836C 12.5449 8.24446 12.5442 8.22437 12.5436 8.21033C 12.5429 8.19723 12.5422 8.18563 12.542 8.18315C 12.5417 8.17804 12.542 8.18252 12.5423 8.18822C 12.5426 8.19494 12.5431 8.20815 12.5431 8.22527L 10.5431 8.22527ZM 10.5449 8.26836L 10.5449 8.26877L 12.5449 8.26877L 12.5449 8.26836L 10.5449 8.26836ZM 10.5449 8.26877L 10.5449 8.26918L 12.5449 8.26918L 12.5449 8.26877L 10.5449 8.26877ZM 10.5449 8.26918C 10.5549 9.12167 10.3611 9.78429 9.96251 10.4329L 11.6778 11.4615C 12.1945 10.5836 12.535 9.40284 12.5449 8.26918L 10.5449 8.26918ZM 9.96223 10.4334C 9.35412 11.4488 8.36931 12.0532 7.31409 12.0532L 7.31409 14.0532C 9.17622 14.0532 10.7654 12.9849 11.6781 11.461L 9.96223 10.4334ZM 7.31409 12.0532C 5.64211 12.0532 4.08359 10.4779 4.08359 8.26918L 2.08359 8.26918C 2.08359 11.3443 4.3135 14.0532 7.31409 14.0532L 7.31409 12.0532ZM 4.08359 8.26918L 4.08359 8.26877L 2.08359 8.26877L 2.08359 8.26918L 4.08359 8.26918ZM 4.08359 8.26877C 4.08359 6.06051 5.64206 4.4852 7.31409 4.4852L 7.31409 2.4852C 4.31355 2.4852 2.08359 5.19405 2.08359 8.26877L 4.08359 8.26877ZM 7.31409 4.4852C 8.77043 4.4852 10.1243 5.6614 10.4652 7.4401L 12.4294 7.0637C 11.9449 4.53525 9.9133 2.4852 7.31409 2.4852L 7.31409 4.4852ZM 10.4647 7.43731C 10.4614 7.4202 10.4602 7.40879 10.4625 7.4267C 10.4635 7.43382 10.4651 7.44645 10.4669 7.45985C 10.469 7.47465 10.4719 7.49496 10.476 7.51824L 12.4462 7.17432C 12.4482 7.18546 12.4491 7.19421 12.4462 7.17118C 12.4444 7.15739 12.439 7.11437 12.43 7.06649L 10.4647 7.43731Z"/>
<path id="path2_fill" d="M 27.2 27.7791C 29.5498 27.1927 31.607 25.7735 32.9894 23.785C 34.3719 21.7964 34.9858 19.3737 34.717 16.9668C 34.4482 14.5599 33.315 12.3323 31.5279 10.6978C 29.7408 9.06319 27.4213 8.13272 25 8.07913C 23.8896 5.36386 21.8934 3.10398 19.3359 1.66685C 16.7785 0.229713 13.8102 -0.300183 10.9135 0.163293C 8.01674 0.626769 5.36193 2.05637 3.38058 4.21971C 1.39922 6.38305 0.207807 9.15294 0 12.0791"/>
<path id="path3_stroke" d="M 26.8368 26.3238C 26.033 26.5243 25.5441 27.3385 25.7446 28.1423C 25.9452 28.9461 26.7594 29.4351 27.5632 29.2345L 26.8368 26.3238ZM 25 8.07913L 23.6116 8.64693L 23.9838 9.55701L 24.9668 9.57876L 25 8.07913ZM -1.49623 11.9729C -1.55492 12.7992 -0.932602 13.5167 -0.106256 13.5754C 0.72009 13.634 1.43755 13.0117 1.49623 12.1854L -1.49623 11.9729ZM 27.5632 29.2345C 30.1673 28.5598 32.6657 26.8361 34.2211 24.6412L 31.7578 22.9287C 30.5482 24.7109 28.9324 25.8257 26.8368 26.3238L 27.5632 29.2345ZM 34.2211 24.6412C 35.7367 22.4188 36.4822 19.4764 36.2077 16.8004L 33.2262 17.1333C 33.4893 19.2711 33.0071 21.1741 31.7578 22.9287L 34.2211 24.6412ZM 36.2077 16.8004C 35.8852 14.1297 34.5089 11.4242 32.5403 9.59093L 30.5156 11.8046C 32.1211 13.2404 33.0112 14.9901 33.2262 17.1333L 36.2077 16.8004ZM 32.5403 9.59093C 30.5391 7.79325 27.7219 6.66316 25.0332 6.5795L 24.9668 9.57876C 27.1206 9.60228 28.9426 10.3331 30.5156 11.8046L 32.5403 9.59093ZM 26.3884 7.51134C 25.1637 4.57234 22.8361 1.93726 20.0708 0.359172L 18.6011 2.97452C 20.9506 4.27069 22.6154 6.15537 23.6116 8.64693L 26.3884 7.51134ZM 20.0708 0.359172C 17.2848 -1.18225 13.8237 -1.80012 10.6765 -1.31787L 11.1505 1.64445C 13.7967 1.19976 16.2722 1.64168 18.6011 2.97452L 20.0708 0.359172ZM 10.6765 -1.31787C 7.53592 -0.794079 4.44034 0.872871 2.27441 3.20659L 4.48674 5.23282C 6.28353 3.23986 8.49757 2.04762 11.1505 1.64445L 10.6765 -1.31787ZM 2.27441 3.20659C 0.139505 5.56872 -1.24971 8.79849 -1.49623 11.9729L 1.49623 12.1854C 1.66533 9.50738 2.65894 7.19737 4.48674 5.23282L 2.27441 3.20659Z"/>
<path id="path4_fill" d="M 54 21.987C 54 18.8044 52.7357 15.7522 50.4853 13.5017C 48.2348 11.2513 45.1826 9.98703 42 9.98703L 40.8 9.98703C 39.4701 6.70761 37.0904 3.96163 34.0335 2.1788C 30.9766 0.395975 27.4148 -0.323092 23.9056 0.134129C 20.3965 0.59135 17.1379 2.19906 14.6398 4.70566C 12.1418 7.21226 10.5452 10.4763 10.1 13.987L 10 13.987C 7.34784 13.987 4.8043 15.0406 2.92893 16.916C 1.05357 18.7913 2.22045e-15 21.3349 4.44089e-16 23.987C 2.66454e-15 26.6392 1.05357 29.1827 2.92893 31.0581C 4.8043 32.9335 7.34784 33.987 10 33.987L 42.1 33.987C 45.2652 33.9607 48.2919 32.6847 50.5207 30.4371C 52.7496 28.1896 54.0001 25.1524 54 21.987Z"/>
<path id="path5_stroke" d="M 42 9.98703L 42 8.48703L 42 9.98703ZM 40.8 9.98703L 39.41 10.5507L 39.7897 11.487L 40.8 11.487L 40.8 9.98703ZM 10.1 13.987L 10.1 15.487L 11.4218 15.487L 11.5881 14.1757L 10.1 13.987ZM 4.44089e-16 23.987L -1.5 23.987L 4.44089e-16 23.987ZM 42.1 33.987L 42.1 35.4871L 42.1125 35.487L 42.1 33.987ZM 55.5 21.987C 55.5 18.4066 54.0777 14.9728 51.5459 12.4411L 49.4246 14.5624C 51.3938 16.5315 52.5 19.2023 52.5 21.987L 55.5 21.987ZM 51.5459 12.4411C 49.0142 9.90935 45.5804 8.48703 42 8.48703L 42 11.487C 44.7848 11.487 47.4555 12.5933 49.4246 14.5624L 51.5459 12.4411ZM 42 8.48703L 40.8 8.48703L 40.8 11.487L 42 11.487L 42 8.48703ZM 42.19 9.42331C 40.7491 5.92401 38.048 2.80702 34.7892 0.883061L 33.2778 3.47454C 36.1329 5.11623 38.191 7.4912 39.41 10.5507L 42.19 9.42331ZM 34.7892 0.883061C 31.51 -1.00596 27.467 -1.82218 23.7118 -1.3533L 24.0994 1.62156C 27.3626 1.176 30.4431 1.79791 33.2778 3.47454L 34.7892 0.883061ZM 23.7118 -1.3533C 19.9619 -0.844311 16.263 0.980615 13.5774 3.64681L 15.7023 5.76451C 18.0128 3.4175 20.8311 2.02701 24.0994 1.62156L 23.7118 -1.3533ZM 13.5774 3.64681C 10.9204 6.34156 9.10809 10.0466 8.61192 13.7983L 11.5881 14.1757C 11.9824 10.906 13.3632 8.08297 15.7023 5.76451L 13.5774 3.64681ZM 10.1 12.487L 10 12.487L 10 15.487L 10.1 15.487L 10.1 12.487ZM 10 12.487C 6.95001 12.487 4.02494 13.6986 1.86827 15.8553L 3.98959 17.9766C 5.58365 16.3826 7.74566 15.487 10 15.487L 10 12.487ZM 1.86827 15.8553C -0.288396 18.012 -1.5 20.937 -1.5 23.987L 1.5 23.987C 1.5 21.7327 2.39553 19.5707 3.98959 17.9766L 1.86827 15.8553ZM -1.5 23.987C -1.5 27.037 -0.288396 29.9621 1.86827 32.1188L 3.98959 29.9974C 2.39553 28.4034 1.5 26.2414 1.5 23.987L -1.5 23.987ZM 1.86827 32.1188C 4.02494 34.2754 6.95001 35.487 10 35.487L 10 32.487C 7.74566 32.487 5.58365 31.5915 3.98959 29.9974L 1.86827 32.1188ZM 10 35.487L 42.1 35.487L 42.1 32.487L 10 32.487L 10 35.487ZM 42.1125 35.487C 45.6734 35.4573 49.0783 34.0219 51.5858 31.4934L 49.4556 29.3809C 47.5054 31.3476 44.8571 32.464 42.0875 32.4871L 42.1125 35.487ZM 51.5858 31.4934C 54.0933 28.9648 55.5001 25.548 55.5 21.987L 52.5 21.9871C 52.5001 24.7568 51.4059 27.4143 49.4556 29.3809L 51.5858 31.4934Z"/>
<path id="path6_fill" d="M 16.8817 11.456C 16.9937 11.632 17.0897 11.872 17.1697 12.176C 17.2657 12.464 17.3137 12.768 17.3137 13.088C 17.3137 13.712 17.1777 14.16 16.9057 14.432C 16.6497 14.688 16.2977 14.816 15.8497 14.816L 10.8097 14.816L 10.8097 17.528L 16.0657 17.528C 16.1937 17.704 16.2977 17.936 16.3777 18.224C 16.4737 18.512 16.5217 18.816 16.5217 19.136C 16.5217 19.744 16.3857 20.184 16.1137 20.456C 15.8577 20.712 15.5057 20.84 15.0577 20.84L 10.8577 20.84L 10.8577 25.904C 10.6817 25.952 10.4017 26 10.0177 26.048C 9.64966 26.096 9.28166 26.12 8.91366 26.12C 8.54566 26.12 8.21766 26.088 7.92966 26.024C 7.65766 25.976 7.42566 25.88 7.23366 25.736C 7.04166 25.592 6.89766 25.392 6.80166 25.136C 6.70566 24.88 6.65766 24.544 6.65766 24.128L 6.65766 13.688C 6.65766 13 6.85766 12.456 7.25766 12.056C 7.65766 11.656 8.20166 11.456 8.88966 11.456L 16.8817 11.456ZM 18.5705 18.704C 18.5705 17.456 18.7625 16.352 19.1465 15.392C 19.5465 14.432 20.0825 13.632 20.7545 12.992C 21.4425 12.336 22.2425 11.84 23.1545 11.504C 24.0825 11.168 25.0825 11 26.1545 11C 27.2265 11 28.2185 11.168 29.1305 11.504C 30.0585 11.84 30.8665 12.336 31.5545 12.992C 32.2425 13.632 32.7785 14.432 33.1625 15.392C 33.5625 16.352 33.7625 17.456 33.7625 18.704C 33.7625 19.952 33.5705 21.064 33.1865 22.04C 32.8025 23 32.2665 23.808 31.5785 24.464C 30.9065 25.104 30.1065 25.592 29.1785 25.928C 28.2505 26.264 27.2425 26.432 26.1545 26.432C 25.0665 26.432 24.0585 26.264 23.1305 25.928C 22.2025 25.576 21.4025 25.072 20.7305 24.416C 20.0585 23.76 19.5305 22.952 19.1465 21.992C 18.7625 21.032 18.5705 19.936 18.5705 18.704ZM 22.8905 18.704C 22.8905 20.16 23.1865 21.248 23.7785 21.968C 24.3705 22.688 25.1625 23.048 26.1545 23.048C 27.1625 23.048 27.9625 22.688 28.5545 21.968C 29.1465 21.248 29.4425 20.16 29.4425 18.704C 29.4425 17.264 29.1465 16.184 28.5545 15.464C 27.9785 14.744 27.1865 14.384 26.1785 14.384C 25.1865 14.384 24.3865 14.744 23.7785 15.464C 23.1865 16.168 22.8905 17.248 22.8905 18.704ZM 49.3415 23.624C 49.3415 24.12 49.2535 24.488 49.0775 24.728C 48.9015 24.968 48.6215 25.2 48.2375 25.424C 48.0135 25.552 47.7335 25.68 47.3975 25.808C 47.0615 25.92 46.6935 26.016 46.2935 26.096C 45.8935 26.192 45.4695 26.264 45.0215 26.312C 44.5895 26.36 44.1575 26.384 43.7255 26.384C 42.5735 26.384 41.4935 26.232 40.4855 25.928C 39.4775 25.608 38.5975 25.136 37.8455 24.512C 37.1095 23.872 36.5255 23.08 36.0935 22.136C 35.6615 21.192 35.4455 20.096 35.4455 18.848C 35.4455 17.536 35.6775 16.392 36.1415 15.416C 36.6215 14.44 37.2455 13.632 38.0135 12.992C 38.7975 12.336 39.6855 11.848 40.6775 11.528C 41.6855 11.208 42.7175 11.048 43.7735 11.048C 45.2935 11.048 46.4935 11.296 47.3735 11.792C 48.2695 12.272 48.7175 12.904 48.7175 13.688C 48.7175 14.104 48.6135 14.464 48.4055 14.768C 48.1975 15.072 47.9575 15.312 47.6855 15.488C 47.2855 15.248 46.7815 15.016 46.1735 14.792C 45.5815 14.552 44.9095 14.432 44.1575 14.432C 42.8135 14.432 41.7415 14.816 40.9415 15.584C 40.1575 16.352 39.7655 17.416 39.7655 18.776C 39.7655 19.512 39.8695 20.152 40.0775 20.696C 40.3015 21.224 40.5975 21.664 40.9655 22.016C 41.3335 22.352 41.7575 22.608 42.2375 22.784C 42.7175 22.944 43.2295 23.024 43.7735 23.024C 44.1255 23.024 44.4375 22.992 44.7095 22.928C 44.9815 22.864 45.1895 22.792 45.3335 22.712L 45.3335 20.456L 42.7655 20.456C 42.6695 20.28 42.5735 20.048 42.4775 19.76C 42.3975 19.472 42.3575 19.168 42.3575 18.848C 42.3575 18.272 42.4855 17.856 42.7415 17.6C 43.0135 17.344 43.3575 17.216 43.7735 17.216L 47.8295 17.216C 48.3095 17.216 48.6775 17.352 48.9335 17.624C 49.2055 17.88 49.3415 18.248 49.3415 18.728L 49.3415 23.624ZM 56.2357 14.816C 56.1237 14.64 56.0197 14.4 55.9237 14.096C 55.8277 13.792 55.7797 13.472 55.7797 13.136C 55.7797 12.512 55.9157 12.064 56.1877 11.792C 56.4757 11.52 56.8437 11.384 57.2917 11.384L 67.7557 11.384C 67.8677 11.56 67.9717 11.8 68.0677 12.104C 68.1637 12.408 68.2117 12.728 68.2117 13.064C 68.2117 13.688 68.0677 14.136 67.7797 14.408C 67.5077 14.68 67.1477 14.816 66.6997 14.816L 64.0357 14.816L 64.0357 25.904C 63.8597 25.952 63.5797 26 63.1957 26.048C 62.8277 26.096 62.4597 26.12 62.0917 26.12C 61.7237 26.12 61.3957 26.088 61.1077 26.024C 60.8357 25.976 60.6037 25.88 60.4117 25.736C 60.2197 25.592 60.0757 25.392 59.9797 25.136C 59.8837 24.88 59.8357 24.544 59.8357 24.128L 59.8357 14.816L 56.2357 14.816ZM 68.8908 18.704C 68.8908 17.456 69.0828 16.352 69.4668 15.392C 69.8668 14.432 70.4028 13.632 71.0748 12.992C 71.7628 12.336 72.5628 11.84 73.4748 11.504C 74.4028 11.168 75.4028 11 76.4748 11C 77.5468 11 78.5388 11.168 79.4508 11.504C 80.3788 11.84 81.1868 12.336 81.8748 12.992C 82.5628 13.632 83.0988 14.432 83.4828 15.392C 83.8828 16.352 84.0828 17.456 84.0828 18.704C 84.0828 19.952 83.8908 21.064 83.5068 22.04C 83.1228 23 82.5868 23.808 81.8988 24.464C 81.2268 25.104 80.4268 25.592 79.4988 25.928C 78.5708 26.264 77.5628 26.432 76.4748 26.432C 75.3868 26.432 74.3788 26.264 73.4508 25.928C 72.5228 25.576 71.7228 25.072 71.0508 24.416C 70.3788 23.76 69.8508 22.952 69.4668 21.992C 69.0828 21.032 68.8908 19.936 68.8908 18.704ZM 73.2108 18.704C 73.2108 20.16 73.5068 21.248 74.0988 21.968C 74.6908 22.688 75.4828 23.048 76.4748 23.048C 77.4828 23.048 78.2828 22.688 78.8748 21.968C 79.4668 21.248 79.7628 20.16 79.7628 18.704C 79.7628 17.264 79.4668 16.184 78.8748 15.464C 78.2988 14.744 77.5068 14.384 76.4988 14.384C 75.5068 14.384 74.7068 14.744 74.0988 15.464C 73.5068 16.168 73.2108 17.248 73.2108 18.704ZM 93.2058 15.008C 93.3818 14.928 93.6538 14.84 94.0218 14.744C 94.4058 14.632 94.7898 14.576 95.1738 14.576C 95.8458 14.576 96.4058 14.68 96.8538 14.888C 97.3018 15.08 97.5738 15.368 97.6698 15.752C 97.8458 16.408 98.0058 17.024 98.1498 17.6C 98.3098 18.16 98.4618 18.704 98.6058 19.232C 98.7498 19.744 98.8858 20.256 99.0138 20.768C 99.1578 21.28 99.2938 21.816 99.4218 22.376L 99.5418 22.376C 99.6858 21.4 99.8138 20.472 99.9258 19.592C 100.038 18.696 100.142 17.824 100.238 16.976C 100.334 16.112 100.43 15.264 100.526 14.432C 100.622 13.584 100.718 12.728 100.814 11.864C 101.406 11.528 102.038 11.36 102.71 11.36C 103.302 11.36 103.814 11.488 104.246 11.744C 104.678 12 104.894 12.432 104.894 13.04C 104.894 13.392 104.854 13.896 104.774 14.552C 104.71 15.192 104.614 15.912 104.486 16.712C 104.374 17.512 104.238 18.352 104.078 19.232C 103.918 20.112 103.75 20.952 103.574 21.752C 103.398 22.552 103.214 23.28 103.022 23.936C 102.846 24.576 102.678 25.072 102.518 25.424C 102.278 25.648 101.886 25.832 101.342 25.976C 100.798 26.12 100.238 26.192 99.6618 26.192C 98.9098 26.192 98.2698 26.096 97.7418 25.904C 97.2298 25.696 96.9178 25.408 96.8058 25.04C 96.5978 24.4 96.3738 23.64 96.1338 22.76C 95.8938 21.88 95.6378 20.912 95.3658 19.856C 95.1418 20.896 94.9098 21.912 94.6698 22.904C 94.4298 23.896 94.2138 24.736 94.0218 25.424C 93.7818 25.648 93.4218 25.832 92.9418 25.976C 92.4618 26.12 91.9338 26.192 91.3578 26.192C 90.6378 26.192 89.9818 26.096 89.3898 25.904C 88.8138 25.696 88.4378 25.408 88.2618 25.04C 88.1178 24.752 87.9578 24.328 87.7818 23.768C 87.6218 23.192 87.4538 22.544 87.2778 21.824C 87.1018 21.088 86.9178 20.296 86.7258 19.448C 86.5498 18.6 86.3818 17.752 86.2218 16.904C 86.0778 16.056 85.9418 15.232 85.8138 14.432C 85.6858 13.616 85.5898 12.872 85.5258 12.2C 85.7498 11.992 86.0618 11.8 86.4618 11.624C 86.8618 11.448 87.2938 11.36 87.7578 11.36C 88.3658 11.36 88.8618 11.496 89.2458 11.768C 89.6458 12.024 89.8938 12.464 89.9898 13.088C 90.2458 14.72 90.4538 16.08 90.6138 17.168C 90.7898 18.256 90.9258 19.152 91.0218 19.856C 91.1338 20.544 91.2138 21.08 91.2618 21.464C 91.3098 21.848 91.3578 22.152 91.4058 22.376L 91.5258 22.376C 91.6698 21.736 91.8058 21.144 91.9338 20.6C 92.0618 20.056 92.1898 19.512 92.3178 18.968C 92.4618 18.408 92.6058 17.816 92.7498 17.192C 92.8938 16.552 93.0458 15.824 93.2058 15.008ZM 120.381 25.496C 120.157 25.72 119.829 25.888 119.397 26C 118.981 26.128 118.477 26.192 117.885 26.192C 117.293 26.192 116.733 26.104 116.205 25.928C 115.677 25.752 115.245 25.328 114.909 24.656L 112.533 19.808C 112.293 19.312 112.077 18.848 111.885 18.416C 111.693 17.968 111.485 17.456 111.261 16.88L 111.117 16.904C 111.181 17.768 111.213 18.648 111.213 19.544C 111.229 20.44 111.237 21.32 111.237 22.184L 111.237 25.904C 111.061 25.952 110.789 26 110.421 26.048C 110.069 26.096 109.717 26.12 109.365 26.12C 109.013 26.12 108.701 26.096 108.429 26.048C 108.157 26 107.933 25.904 107.757 25.76C 107.581 25.616 107.445 25.424 107.349 25.184C 107.253 24.928 107.205 24.6 107.205 24.2L 107.205 12.2C 107.429 11.88 107.773 11.64 108.237 11.48C 108.701 11.32 109.197 11.24 109.725 11.24C 110.317 11.24 110.877 11.336 111.405 11.528C 111.949 11.704 112.381 12.12 112.701 12.776L 115.101 17.624C 115.341 18.12 115.557 18.592 115.749 19.04C 115.941 19.472 116.149 19.976 116.373 20.552L 116.493 20.528C 116.429 19.664 116.389 18.8 116.373 17.936C 116.357 17.072 116.349 16.208 116.349 15.344L 116.349 11.456C 116.525 11.408 116.789 11.36 117.141 11.312C 117.509 11.264 117.869 11.24 118.221 11.24C 118.925 11.24 119.461 11.368 119.829 11.624C 120.197 11.864 120.381 12.376 120.381 13.16L 120.381 25.496ZM 127.626 14.816C 127.514 14.64 127.41 14.4 127.314 14.096C 127.218 13.792 127.17 13.472 127.17 13.136C 127.17 12.512 127.306 12.064 127.578 11.792C 127.866 11.52 128.234 11.384 128.682 11.384L 139.146 11.384C 139.258 11.56 139.362 11.8 139.458 12.104C 139.554 12.408 139.602 12.728 139.602 13.064C 139.602 13.688 139.458 14.136 139.17 14.408C 138.898 14.68 138.538 14.816 138.09 14.816L 135.426 14.816L 135.426 25.904C 135.25 25.952 134.97 26 134.586 26.048C 134.218 26.096 133.85 26.12 133.482 26.12C 133.114 26.12 132.786 26.088 132.498 26.024C 132.226 25.976 131.994 25.88 131.802 25.736C 131.61 25.592 131.466 25.392 131.37 25.136C 131.274 24.88 131.226 24.544 131.226 24.128L 131.226 14.816L 127.626 14.816ZM 140.281 18.704C 140.281 17.456 140.473 16.352 140.857 15.392C 141.257 14.432 141.793 13.632 142.465 12.992C 143.153 12.336 143.953 11.84 144.865 11.504C 145.793 11.168 146.793 11 147.865 11C 148.937 11 149.929 11.168 150.841 11.504C 151.769 11.84 152.577 12.336 153.265 12.992C 153.953 13.632 154.489 14.432 154.873 15.392C 155.273 16.352 155.473 17.456 155.473 18.704C 155.473 19.952 155.281 21.064 154.897 22.04C 154.513 23 153.977 23.808 153.289 24.464C 152.617 25.104 151.817 25.592 150.889 25.928C 149.961 26.264 148.953 26.432 147.865 26.432C 146.777 26.432 145.769 26.264 144.841 25.928C 143.913 25.576 143.113 25.072 142.441 24.416C 141.769 23.76 141.241 22.952 140.857 21.992C 140.473 21.032 140.281 19.936 140.281 18.704ZM 144.601 18.704C 144.601 20.16 144.897 21.248 145.489 21.968C 146.081 22.688 146.873 23.048 147.865 23.048C 148.873 23.048 149.673 22.688 150.265 21.968C 150.857 21.248 151.153 20.16 151.153 18.704C 151.153 17.264 150.857 16.184 150.265 15.464C 149.689 14.744 148.897 14.384 147.889 14.384C 146.897 14.384 146.097 14.744 145.489 15.464C 144.897 16.168 144.601 17.248 144.601 18.704ZM 164.899 25.904C 164.723 25.952 164.451 26 164.083 26.048C 163.715 26.096 163.355 26.12 163.003 26.12C 162.267 26.12 161.715 26 161.347 25.76C 160.979 25.504 160.795 24.976 160.795 24.176L 160.795 20.936C 160.395 20.344 159.963 19.688 159.499 18.968C 159.035 18.248 158.579 17.512 158.131 16.76C 157.683 16.008 157.267 15.272 156.883 14.552C 156.499 13.816 156.187 13.144 155.947 12.536C 156.155 12.248 156.435 11.984 156.787 11.744C 157.155 11.504 157.603 11.384 158.131 11.384C 158.755 11.384 159.259 11.512 159.643 11.768C 160.043 12.024 160.419 12.504 160.771 13.208L 162.763 17.216L 162.907 17.216C 163.131 16.72 163.323 16.272 163.483 15.872C 163.659 15.456 163.827 15.048 163.987 14.648C 164.147 14.232 164.315 13.808 164.491 13.376C 164.667 12.928 164.867 12.416 165.091 11.84C 165.379 11.696 165.699 11.584 166.051 11.504C 166.403 11.424 166.739 11.384 167.059 11.384C 167.619 11.384 168.091 11.536 168.475 11.84C 168.875 12.128 169.075 12.568 169.075 13.16C 169.075 13.352 169.035 13.584 168.955 13.856C 168.875 14.128 168.691 14.544 168.403 15.104C 168.115 15.648 167.691 16.392 167.131 17.336C 166.587 18.28 165.843 19.512 164.899 21.032L 164.899 25.904ZM 175.176 20.216C 174.472 19.976 173.832 19.736 173.256 19.496C 172.68 19.24 172.184 18.936 171.768 18.584C 171.352 18.232 171.024 17.816 170.784 17.336C 170.56 16.84 170.448 16.24 170.448 15.536C 170.448 14.176 170.968 13.088 172.008 12.272C 173.064 11.456 174.536 11.048 176.424 11.048C 177.112 11.048 177.752 11.096 178.344 11.192C 178.936 11.288 179.44 11.44 179.856 11.648C 180.288 11.84 180.624 12.096 180.864 12.416C 181.104 12.72 181.224 13.08 181.224 13.496C 181.224 13.912 181.128 14.272 180.936 14.576C 180.744 14.864 180.512 15.112 180.24 15.32C 179.888 15.096 179.416 14.904 178.824 14.744C 178.232 14.568 177.584 14.48 176.88 14.48C 176.16 14.48 175.632 14.584 175.296 14.792C 174.96 14.984 174.792 15.232 174.792 15.536C 174.792 15.776 174.896 15.976 175.104 16.136C 175.312 16.28 175.624 16.416 176.04 16.544L 177.312 16.952C 178.816 17.432 179.968 18.048 180.768 18.8C 181.584 19.536 181.992 20.544 181.992 21.824C 181.992 23.184 181.456 24.288 180.384 25.136C 179.312 25.968 177.736 26.384 175.656 26.384C 174.92 26.384 174.232 26.32 173.592 26.192C 172.968 26.08 172.416 25.912 171.936 25.688C 171.472 25.448 171.104 25.16 170.832 24.824C 170.576 24.472 170.448 24.072 170.448 23.624C 170.448 23.16 170.584 22.768 170.856 22.448C 171.128 22.112 171.424 21.856 171.744 21.68C 172.192 22.032 172.736 22.336 173.376 22.592C 174.032 22.848 174.744 22.976 175.512 22.976C 176.296 22.976 176.848 22.856 177.168 22.616C 177.488 22.376 177.648 22.096 177.648 21.776C 177.648 21.456 177.52 21.216 177.264 21.056C 177.008 20.88 176.648 20.712 176.184 20.552L 175.176 20.216Z"/>
<path id="path7_stroke_2x" d="M 16.8817 11.456L 17.5144 11.0533L 17.2934 10.706L 16.8817 10.706L 16.8817 11.456ZM 17.1697 12.176L 16.4444 12.3669L 16.4505 12.3902L 16.4581 12.4132L 17.1697 12.176ZM 16.9057 14.432L 17.436 14.9623L 17.436 14.9623L 16.9057 14.432ZM 10.8097 14.816L 10.8097 14.066L 10.0597 14.066L 10.0597 14.816L 10.8097 14.816ZM 10.8097 17.528L 10.0597 17.528L 10.0597 18.278L 10.8097 18.278L 10.8097 17.528ZM 16.0657 17.528L 16.6722 17.0869L 16.4476 16.778L 16.0657 16.778L 16.0657 17.528ZM 16.3777 18.224L 15.655 18.4247L 15.6601 18.4431L 15.6661 18.4612L 16.3777 18.224ZM 16.1137 20.456L 15.5833 19.9257L 15.5833 19.9257L 16.1137 20.456ZM 10.8577 20.84L 10.8577 20.09L 10.1077 20.09L 10.1077 20.84L 10.8577 20.84ZM 10.8577 25.904L 11.055 26.6276L 11.6077 26.4768L 11.6077 25.904L 10.8577 25.904ZM 10.0177 26.048L 9.92463 25.3038L 9.92065 25.3043L 10.0177 26.048ZM 7.92966 26.024L 8.09235 25.2919L 8.07625 25.2883L 8.06 25.2854L 7.92966 26.024ZM 7.23366 25.736L 6.78366 26.336L 6.78366 26.336L 7.23366 25.736ZM 6.80166 25.136L 6.09941 25.3993L 6.09941 25.3993L 6.80166 25.136ZM 7.25766 12.056L 7.78799 12.5863L 7.78799 12.5863L 7.25766 12.056ZM 16.2489 11.8587C 16.3262 11.9741 16.3775 12.1072 16.4444 12.3669L 17.895 11.9851C 17.8018 11.6368 17.6611 11.2899 17.5144 11.0533L 16.2489 11.8587ZM 16.4581 12.4132C 16.537 12.6417 16.566 12.8267 16.5637 13.088L 18.0637 13.088C 18.0614 12.7093 17.9943 12.2863 17.8812 11.9388L 16.4581 12.4132ZM 16.5637 13.088C 16.5637 13.6315 16.4407 13.8363 16.3753 13.9017L 17.436 14.9623C 17.9146 14.4837 18.0637 13.7925 18.0637 13.088L 16.5637 13.088ZM 16.3753 13.9017C 16.2918 13.9852 16.1488 14.066 15.8497 14.066L 15.8497 15.566C 16.4465 15.566 17.0075 15.3908 17.436 14.9623L 16.3753 13.9017ZM 15.8497 14.066L 10.8097 14.066L 10.8097 15.566L 15.8497 15.566L 15.8497 14.066ZM 10.0597 14.816L 10.0597 17.528L 11.5597 17.528L 11.5597 14.816L 10.0597 14.816ZM 10.8097 18.278L 16.0657 18.278L 16.0657 16.778L 10.8097 16.778L 10.8097 18.278ZM 15.4591 17.9691C 15.5447 18.08 15.5922 18.1905 15.655 18.4247L 17.1003 18.0233C 17.0032 17.6815 16.8426 17.328 16.6722 17.0869L 15.4591 17.9691ZM 15.6661 18.4612C 15.745 18.6897 15.774 18.8747 15.7717 19.136L 17.2717 19.136C 17.2694 18.7573 17.2023 18.3343 17.0892 17.9868L 15.6661 18.4612ZM 15.7717 19.136C 15.7717 19.6568 15.6516 19.8574 15.5833 19.9257L 16.644 20.9863C 17.1197 20.5106 17.2717 19.8312 17.2717 19.136L 15.7717 19.136ZM 15.5833 19.9257C 15.4998 20.0092 15.3568 20.09 15.0577 20.09L 15.0577 21.59C 15.6545 21.59 16.2155 21.4148 16.644 20.9863L 15.5833 19.9257ZM 15.0577 20.09L 10.8577 20.09L 10.8577 21.59L 15.0577 21.59L 15.0577 20.09ZM 10.1077 20.84L 10.1077 25.904L 11.6077 25.904L 11.6077 20.84L 10.1077 20.84ZM 10.6603 25.1804C 10.5194 25.2198 10.2918 25.2581 9.92463 25.3038L 10.1107 26.7922C 10.5116 26.7419 10.8439 26.6842 11.055 26.6276L 10.6603 25.1804ZM 9.92065 25.3043C 9.57671 25.3496 9.25724 25.3704 8.91366 25.37L 8.91366 26.87C 9.30607 26.8696 9.7226 26.8424 10.1147 26.7917L 9.92065 25.3043ZM 8.91366 25.37C 8.58211 25.3709 8.33563 25.3473 8.09235 25.2919L 7.76696 26.7561C 8.09968 26.8287 8.5092 26.8691 8.91366 26.87L 8.91366 25.37ZM 8.06 25.2854C 7.86745 25.2559 7.79696 25.2284 7.68366 25.136L 6.78366 26.336C 7.05435 26.5316 7.44786 26.6961 7.79932 26.7626L 8.06 25.2854ZM 7.68366 25.136C 7.57713 25.0669 7.55891 25.0381 7.5039 24.8727L 6.09941 25.3993C 6.2364 25.7459 6.50619 26.1171 6.78366 26.336L 7.68366 25.136ZM 7.5039 24.8727C 7.43228 24.6942 7.40577 24.4908 7.40766 24.128L 5.90766 24.128C 5.90954 24.5972 5.97903 25.0658 6.09941 25.3993L 7.5039 24.8727ZM 7.40766 24.128L 7.40766 13.688L 5.90766 13.688L 5.90766 24.128L 7.40766 24.128ZM 7.40766 13.688C 7.40766 13.1531 7.55804 12.8163 7.78799 12.5863L 6.72733 11.5257C 6.15728 12.0957 5.90766 12.8469 5.90766 13.688L 7.40766 13.688ZM 7.78799 12.5863C 8.01794 12.3564 8.35473 12.206 8.88966 12.206L 8.88966 10.706C 8.04858 10.706 7.29738 10.9556 6.72733 11.5257L 7.78799 12.5863ZM 8.88966 12.206L 16.8817 12.206L 16.8817 10.706L 8.88966 10.706L 8.88966 12.206ZM 19.1465 15.392L 18.4541 15.1035L 18.4501 15.1135L 19.1465 15.392ZM 20.7545 12.992L 21.2717 13.5351L 21.272 13.5348L 20.7545 12.992ZM 23.1545 11.504L 22.8991 10.7988L 22.8952 10.8002L 23.1545 11.504ZM 29.1305 11.504L 28.8712 12.2078L 28.8751 12.2092L 29.1305 11.504ZM 31.5545 12.992L 31.0369 13.5348L 31.0436 13.5411L 31.5545 12.992ZM 33.1625 15.392L 32.466 15.6706L 32.4702 15.6805L 33.1625 15.392ZM 33.1865 22.04L 33.8828 22.3185L 33.8844 22.3146L 33.1865 22.04ZM 31.5785 24.464L 32.0957 25.0071L 32.096 25.0068L 31.5785 24.464ZM 29.1785 25.928L 29.4338 26.6332L 29.1785 25.928ZM 23.1305 25.928L 22.8644 26.6293L 22.8751 26.6332L 23.1305 25.928ZM 19.1465 21.992L 18.4501 22.2705L 18.4501 22.2705L 19.1465 21.992ZM 28.5545 15.464L 27.9688 15.9326L 27.9751 15.9403L 28.5545 15.464ZM 23.7785 15.464L 23.2054 14.9801L 23.2044 14.9813L 23.7785 15.464ZM 19.3205 18.704C 19.3177 17.5205 19.484 16.5566 19.8428 15.6705L 18.4501 15.1135C 18.0409 16.1474 17.8232 17.3915 17.8205 18.704L 19.3205 18.704ZM 19.8388 15.6805C 20.2073 14.7867 20.6561 14.1152 21.2717 13.5351L 20.2372 12.4489C 19.5089 13.1488 18.8856 14.0773 18.4542 15.1035L 19.8388 15.6805ZM 21.272 13.5348C 21.9013 12.9293 22.5714 12.514 23.4137 12.2078L 22.8952 10.8002C 21.9136 11.166 20.9836 11.7427 20.2369 12.4492L 21.272 13.5348ZM 23.4098 12.2092C 24.273 11.8934 25.1448 11.7474 26.1545 11.75L 26.1545 10.25C 25.0201 10.2526 23.8919 10.4426 22.8991 10.7988L 23.4098 12.2092ZM 26.1545 11.75C 27.1636 11.7474 28.0254 11.8927 28.8712 12.2078L 29.3897 10.8002C 28.4116 10.4433 27.2893 10.2526 26.1545 10.25L 26.1545 11.75ZM 28.8751 12.2092C 29.7329 12.5157 30.409 12.9303 31.0369 13.5348L 32.072 12.4492C 31.324 11.7417 30.384 11.1643 29.3858 10.7988L 28.8751 12.2092ZM 31.0436 13.5411C 31.6717 14.1185 32.1151 14.7819 32.4661 15.6705L 33.8588 15.1135C 33.4418 14.0821 32.8132 13.1455 32.0653 12.4429L 31.0436 13.5411ZM 32.4702 15.6805C 32.8431 16.5643 33.0155 17.5231 33.0125 18.704L 34.5125 18.704C 34.5095 17.3889 34.2818 16.1397 33.8548 15.1035L 32.4702 15.6805ZM 33.0125 18.704C 33.0152 19.888 32.8482 20.8619 32.4885 21.7654L 33.8844 22.3146C 34.2927 21.2662 34.5097 20.016 34.5125 18.704L 33.0125 18.704ZM 32.4901 21.7615C 32.1383 22.6516 31.6916 23.3263 31.0609 23.9212L 32.096 25.0068C 32.8413 24.2897 33.4666 23.3484 33.8828 22.3185L 32.4901 21.7615ZM 31.0612 23.9209C 30.45 24.5089 29.7819 24.9159 28.9231 25.2228L 29.4338 26.6332C 30.431 26.2681 31.363 25.6991 32.0957 25.0071L 31.0612 23.9209ZM 28.9231 25.2228C 28.0604 25.5385 27.1806 25.6846 26.1545 25.682L 26.1545 27.182C 27.3043 27.1794 28.4406 26.9895 29.4338 26.6332L 28.9231 25.2228ZM 26.1545 25.682C 25.1283 25.6846 24.2486 25.5385 23.3858 25.2228L 22.8751 26.6332C 23.8684 26.9895 25.0046 27.1794 26.1545 27.182L 26.1545 25.682ZM 23.3965 25.2268C 22.537 24.9048 21.8669 24.4831 21.2544 23.8793L 20.2066 24.9527C 20.938 25.6609 21.8679 26.2472 22.8645 26.6292L 23.3965 25.2268ZM 21.2544 23.8793C 20.6378 23.2837 20.1958 22.6059 19.8428 21.7135L 18.4501 22.2705C 18.8651 23.2981 19.4791 24.2363 20.2066 24.9527L 21.2544 23.8793ZM 19.8428 21.7135C 19.4839 20.8269 19.3177 19.871 19.3205 18.704L 17.8205 18.704C 17.8233 20.001 18.0411 21.2371 18.4501 22.2705L 19.8428 21.7135ZM 22.1405 18.704C 22.1405 20.2414 22.4497 21.5329 23.1991 22.4443L 24.3578 21.4917C 23.9232 20.9631 23.6405 20.0786 23.6405 18.704L 22.1405 18.704ZM 23.1991 22.4443C 23.9438 23.35 24.9547 23.798 26.1545 23.798L 26.1545 22.298C 25.3703 22.298 24.7972 22.026 24.3578 21.4917L 23.1991 22.4443ZM 26.1545 23.798C 27.366 23.798 28.3866 23.3531 29.1338 22.4443L 27.9751 21.4917C 27.5383 22.0229 26.959 22.298 26.1545 22.298L 26.1545 23.798ZM 29.1338 22.4443C 29.8832 21.5329 30.1925 20.2414 30.1925 18.704L 28.6925 18.704C 28.6925 20.0786 28.4097 20.9631 27.9751 21.4917L 29.1338 22.4443ZM 30.1925 18.704C 30.1925 17.1802 29.8822 15.8979 29.1338 14.9877L 27.9751 15.9403C 28.4107 16.4701 28.6925 17.3478 28.6925 18.704L 30.1925 18.704ZM 29.1401 14.9955C 28.4073 14.0794 27.39 13.634 26.1785 13.634L 26.1785 15.134C 26.9829 15.134 27.5496 15.4086 27.9688 15.9325L 29.1401 14.9955ZM 26.1785 13.634C 24.9789 13.634 23.9643 14.0815 23.2054 14.9801L 24.3515 15.9479C 24.8086 15.4065 25.394 15.134 26.1785 15.134L 26.1785 13.634ZM 23.2044 14.9813C 22.4489 15.8797 22.1405 17.1685 22.1405 18.704L 23.6405 18.704C 23.6405 17.3275 23.924 16.4563 24.3525 15.9467L 23.2044 14.9813ZM 49.0775 24.728L 49.6823 25.1715L 49.6823 25.1715L 49.0775 24.728ZM 48.2375 25.424L 48.6096 26.0752L 48.6154 26.0718L 48.2375 25.424ZM 47.3975 25.808L 47.6346 26.5195L 47.6497 26.5145L 47.6645 26.5089L 47.3975 25.808ZM 46.2935 26.096L 46.1464 25.3606L 46.1324 25.3634L 46.1184 25.3667L 46.2935 26.096ZM 45.0215 26.312L 44.9416 25.5663L 44.9386 25.5666L 45.0215 26.312ZM 40.4855 25.928L 40.2585 26.6429L 40.2689 26.6461L 40.4855 25.928ZM 37.8455 24.512L 37.3533 25.078L 37.3599 25.0836L 37.3665 25.0892L 37.8455 24.512ZM 36.1415 15.416L 35.4684 15.085L 35.4641 15.094L 36.1415 15.416ZM 38.0135 12.992L 38.4936 13.5682L 38.4948 13.5672L 38.0135 12.992ZM 40.6775 11.528L 40.4505 10.8131L 40.4472 10.8142L 40.6775 11.528ZM 47.3735 11.792L 47.0052 12.4454L 47.0122 12.4493L 47.0193 12.4531L 47.3735 11.792ZM 48.4055 14.768L 47.7865 14.3445L 47.7865 14.3445L 48.4055 14.768ZM 47.6855 15.488L 47.2996 16.1311L 47.7004 16.3716L 48.0929 16.1177L 47.6855 15.488ZM 46.1735 14.792L 45.8917 15.4871L 45.9029 15.4916L 45.9142 15.4958L 46.1735 14.792ZM 40.9415 15.584L 40.422 15.0429L 40.4166 15.0482L 40.9415 15.584ZM 40.0775 20.696L 39.3769 20.9639L 39.3818 20.9765L 39.387 20.9889L 40.0775 20.696ZM 40.9655 22.016L 40.4471 22.558L 40.4533 22.564L 40.4598 22.5699L 40.9655 22.016ZM 42.2375 22.784L 41.9793 23.4882L 41.9897 23.492L 42.0003 23.4955L 42.2375 22.784ZM 44.7095 22.928L 44.8812 23.6581L 44.8812 23.6581L 44.7095 22.928ZM 45.3335 22.712L 45.6977 23.3676L 46.0835 23.1533L 46.0835 22.712L 45.3335 22.712ZM 45.3335 20.456L 46.0835 20.456L 46.0835 19.706L 45.3335 19.706L 45.3335 20.456ZM 42.7655 20.456L 42.107 20.8151L 42.3202 21.206L 42.7655 21.206L 42.7655 20.456ZM 42.4775 19.76L 41.7548 19.9607L 41.7599 19.9791L 41.766 19.9972L 42.4775 19.76ZM 42.7415 17.6L 42.2274 17.0538L 42.2192 17.0616L 42.2111 17.0697L 42.7415 17.6ZM 48.9335 17.624L 48.3873 18.138L 48.4029 18.1546L 48.4194 18.1702L 48.9335 17.624ZM 48.5915 23.624C 48.5915 24.057 48.5099 24.2337 48.4727 24.2845L 49.6823 25.1715C 49.997 24.7423 50.0915 24.183 50.0915 23.624L 48.5915 23.624ZM 48.4727 24.2845C 48.3799 24.411 48.1946 24.5807 47.8596 24.7762L 48.6154 26.0718C 49.0483 25.8193 49.4231 25.525 49.6823 25.1715L 48.4727 24.2845ZM 47.8654 24.7728C 47.6712 24.8847 47.4439 24.9882 47.1305 25.1071L 47.6645 26.5089C 48.023 26.3718 48.3558 26.2193 48.6096 26.0752L 47.8654 24.7728ZM 47.1603 25.0965C 46.8481 25.201 46.5252 25.2851 46.1464 25.3606L 46.4406 26.8314C 46.8617 26.7469 47.2748 26.639 47.6346 26.5195L 47.1603 25.0965ZM 46.1184 25.3667C 45.7431 25.4572 45.3667 25.5211 44.9416 25.5663L 45.1014 27.0577C 45.5722 27.0069 46.0438 26.9268 46.4685 26.8253L 46.1184 25.3667ZM 44.9386 25.5666C 44.5272 25.6126 44.1367 25.6343 43.7255 25.634L 43.7255 27.134C 44.1783 27.1337 44.6517 27.1074 45.1043 27.0574L 44.9386 25.5666ZM 43.7255 25.634C 42.6259 25.6358 41.6545 25.4995 40.702 25.2099L 40.2689 26.6461C 41.3325 26.9645 42.5211 27.1322 43.7255 27.134L 43.7255 25.634ZM 40.7124 25.2132C 39.7694 24.9172 39.0163 24.5138 38.3244 23.9348L 37.3665 25.0892C 38.1787 25.7582 39.1855 26.2988 40.2585 26.6428L 40.7124 25.2132ZM 38.3376 23.946C 37.6607 23.3634 37.1717 22.6994 36.7754 21.8239L 35.4115 22.4481C 35.8792 23.4606 36.5583 24.3806 37.3533 25.078L 38.3376 23.946ZM 36.7754 21.8239C 36.3753 20.9619 36.1919 20.0231 36.1955 18.848L 34.6955 18.848C 34.699 20.1689 34.9477 21.4221 35.4115 22.4481L 36.7754 21.8239ZM 36.1955 18.848C 36.1917 17.6109 36.3889 16.6293 36.8188 15.738L 35.4641 15.094C 34.966 16.1547 34.6992 17.4611 34.6955 18.848L 36.1955 18.848ZM 36.8145 15.747C 37.258 14.8367 37.7856 14.1524 38.4936 13.5682L 37.5333 12.4158C 36.7054 13.1116 35.985 14.0433 35.4685 15.085L 36.8145 15.747ZM 38.4948 13.5672C 39.2207 12.9552 39.9825 12.5367 40.9077 12.2418L 40.4472 10.8142C 39.3884 11.1593 38.3742 11.7168 37.5322 12.4168L 38.4948 13.5672ZM 40.9044 12.2428C 41.8569 11.9381 42.7751 11.7958 43.7735 11.798L 43.7735 10.298C 42.6598 10.3002 41.514 10.4779 40.4505 10.8132L 40.9044 12.2428ZM 43.7735 11.798C 45.2245 11.798 46.2804 12.0368 47.0052 12.4454L 47.7417 11.1386C 46.7066 10.5552 45.3624 10.298 43.7735 10.298L 43.7735 11.798ZM 47.0193 12.4531C 47.7559 12.8477 47.9675 13.2645 47.9675 13.688L 49.4675 13.688C 49.4675 12.5435 48.7831 11.6963 47.7276 11.1309L 47.0193 12.4531ZM 47.9675 13.688C 47.9749 13.9989 47.9351 14.1441 47.7865 14.3445L 49.0244 15.1915C 49.2918 14.7839 49.4601 14.2091 49.4675 13.688L 47.9675 13.688ZM 47.7865 14.3445C 47.6203 14.593 47.486 14.7288 47.278 14.8583L 48.0929 16.1177C 48.429 15.8952 48.7746 15.551 49.0244 15.1915L 47.7865 14.3445ZM 48.0713 14.8449C 47.6357 14.5848 47.0681 14.3229 46.4327 14.0882L 45.9142 15.4958C 46.4948 15.7091 46.9352 15.9112 47.2996 16.1311L 48.0713 14.8449ZM 46.4552 14.0969C 45.7894 13.8314 44.9756 13.6849 44.1575 13.682L 44.1575 15.182C 44.8433 15.1791 45.3735 15.2726 45.8917 15.4871L 46.4552 14.0969ZM 44.1575 13.682C 42.6634 13.682 41.3903 14.1135 40.4221 15.043L 41.4609 16.125C 42.0927 15.5185 42.9636 15.182 44.1575 15.182L 44.1575 13.682ZM 40.4166 15.0482C 39.4557 15.9895 39.0155 17.2657 39.0155 18.776L 40.5155 18.776C 40.5155 17.5663 40.8592 16.7145 41.4663 16.1198L 40.4166 15.0482ZM 39.0155 18.776C 39.0179 19.5723 39.1453 20.3471 39.3769 20.9639L 40.778 20.4281C 40.5937 19.9569 40.513 19.4517 40.5155 18.776L 39.0155 18.776ZM 39.387 20.9889C 39.6421 21.5814 40.0238 22.1471 40.4471 22.558L 41.4839 21.474C 41.1711 21.1809 40.9608 20.8666 40.7679 20.4031L 39.387 20.9889ZM 40.4598 22.5699C 40.8846 22.9529 41.4331 23.2842 41.9793 23.4882L 42.4957 22.0798C 42.0819 21.9318 41.7823 21.7511 41.4712 21.4621L 40.4598 22.5699ZM 42.0003 23.4955C 42.5404 23.6728 43.1714 23.7717 43.7735 23.774L 43.7735 22.274C 43.2875 22.2763 42.8946 22.2152 42.4746 22.0725L 42.0003 23.4955ZM 43.7735 23.774C 44.1638 23.773 44.5619 23.7316 44.8812 23.6581L 44.5377 22.1979C 44.3131 22.2524 44.0872 22.275 43.7735 22.274L 43.7735 23.774ZM 44.8812 23.6581C 45.1903 23.5843 45.4954 23.4768 45.6977 23.3676L 44.9692 22.0564C 44.8835 22.1072 44.7726 22.1437 44.5377 22.1979L 44.8812 23.6581ZM 46.0835 22.712L 46.0835 20.456L 44.5835 20.456L 44.5835 22.712L 46.0835 22.712ZM 45.3335 19.706L 42.7655 19.706L 42.7655 21.206L 45.3335 21.206L 45.3335 19.706ZM 43.4239 20.0969C 43.3462 19.9566 43.2762 19.7859 43.189 19.5228L 41.766 19.9972C 41.8708 20.3101 41.9928 20.6034 42.107 20.8151L 43.4239 20.0969ZM 43.2001 19.5593C 43.1324 19.3223 43.1059 19.119 43.1075 18.848L 41.6075 18.848C 41.6091 19.217 41.6626 19.6217 41.7548 19.9607L 43.2001 19.5593ZM 43.1075 18.848C 43.1075 18.3575 43.2203 18.1819 43.2718 18.1303L 42.2111 17.0697C 41.7507 17.5301 41.6075 18.1865 41.6075 18.848L 43.1075 18.848ZM 43.2555 18.1462C 43.3721 18.0364 43.525 17.966 43.7735 17.966L 43.7735 16.466C 43.19 16.466 42.6548 16.6516 42.2274 17.0538L 43.2555 18.1462ZM 43.7735 17.966L 47.8295 17.966L 47.8295 16.466L 43.7735 16.466L 43.7735 17.966ZM 47.8295 17.966C 48.165 17.966 48.3107 18.0566 48.3873 18.138L 49.4796 17.11C 49.0442 16.6474 48.454 16.466 47.8295 16.466L 47.8295 17.966ZM 48.4194 18.1702C 48.5008 18.2467 48.5915 18.3925 48.5915 18.728L 50.0915 18.728C 50.0915 18.1035 49.9101 17.5133 49.4475 17.0778L 48.4194 18.1702ZM 48.5915 18.728L 48.5915 23.624L 50.0915 23.624L 50.0915 18.728L 48.5915 18.728ZM 56.2357 14.816L 55.6029 15.2187L 55.8239 15.566L 56.2357 15.566L 56.2357 14.816ZM 55.9237 14.096L 55.2085 14.3218L 55.2085 14.3218L 55.9237 14.096ZM 56.1877 11.792L 55.6727 11.2467L 55.6649 11.2541L 55.6573 11.2617L 56.1877 11.792ZM 67.7557 11.384L 68.3884 10.9813L 68.1674 10.634L 67.7557 10.634L 67.7557 11.384ZM 68.0677 12.104L 67.3525 12.3298L 67.3525 12.3298L 68.0677 12.104ZM 67.7797 14.408L 67.2647 13.8627L 67.2569 13.8701L 67.2493 13.8777L 67.7797 14.408ZM 64.0357 14.816L 64.0357 14.066L 63.2857 14.066L 63.2857 14.816L 64.0357 14.816ZM 64.0357 25.904L 64.233 26.6276L 64.7857 26.4768L 64.7857 25.904L 64.0357 25.904ZM 63.1957 26.048L 63.1026 25.3038L 63.0987 25.3043L 63.1957 26.048ZM 61.1077 26.024L 61.2704 25.2919L 61.2542 25.2883L 61.238 25.2854L 61.1077 26.024ZM 60.4117 25.736L 59.9617 26.336L 59.9617 26.336L 60.4117 25.736ZM 59.9797 25.136L 60.6819 24.8727L 60.6819 24.8727L 59.9797 25.136ZM 59.8357 14.816L 60.5857 14.816L 60.5857 14.066L 59.8357 14.066L 59.8357 14.816ZM 56.8684 14.4133C 56.7862 14.2885 56.7223 14.1376 56.6388 13.8702L 55.2085 14.3218C 55.317 14.6624 55.4611 14.9915 55.6029 15.2187L 56.8684 14.4133ZM 56.6388 13.8702C 56.5584 13.6229 56.5276 13.4162 56.5297 13.136L 55.0297 13.136C 55.0317 13.5278 55.097 13.9611 55.2085 14.3218L 56.6388 13.8702ZM 56.5297 13.136C 56.5297 12.5925 56.6526 12.3877 56.718 12.3223L 55.6573 11.2617C 55.1787 11.7403 55.0297 12.4315 55.0297 13.136L 56.5297 13.136ZM 56.7026 12.3373C 56.8329 12.2142 57.0081 12.134 57.2917 12.134L 57.2917 10.634C 56.6792 10.634 56.1184 10.8258 55.6727 11.2467L 56.7026 12.3373ZM 57.2917 12.134L 67.7557 12.134L 67.7557 10.634L 57.2917 10.634L 57.2917 12.134ZM 67.1229 11.7867C 67.2051 11.9115 67.269 12.0624 67.3525 12.3298L 68.7828 11.8782C 68.6743 11.5376 68.5302 11.2085 68.3884 10.9813L 67.1229 11.7867ZM 67.3525 12.3298C 67.433 12.5771 67.4637 12.7838 67.4617 13.064L 68.9617 13.064C 68.9596 12.6722 68.8944 12.2389 68.7828 11.8782L 67.3525 12.3298ZM 67.4617 13.064C 67.4617 13.5976 67.3353 13.7961 67.2647 13.8627L 68.2946 14.9533C 68.8001 14.4759 68.9617 13.7784 68.9617 13.064L 67.4617 13.064ZM 67.2493 13.8777C 67.1412 13.9858 66.9841 14.066 66.6997 14.066L 66.6997 15.566C 67.3112 15.566 67.8741 15.3742 68.31 14.9383L 67.2493 13.8777ZM 66.6997 14.066L 64.0357 14.066L 64.0357 15.566L 66.6997 15.566L 66.6997 14.066ZM 63.2857 14.816L 63.2857 25.904L 64.7857 25.904L 64.7857 14.816L 63.2857 14.816ZM 63.8383 25.1804C 63.6974 25.2198 63.4698 25.2581 63.1026 25.3038L 63.2887 26.7922C 63.6896 26.7419 64.0219 26.6842 64.233 26.6276L 63.8383 25.1804ZM 63.0987 25.3043C 62.7547 25.3496 62.4352 25.3704 62.0917 25.37L 62.0917 26.87C 62.4841 26.8696 62.9006 26.8424 63.2927 26.7917L 63.0987 25.3043ZM 62.0917 25.37C 61.7601 25.3709 61.5136 25.3473 61.2704 25.2919L 60.945 26.7561C 61.2777 26.8287 61.6872 26.8691 62.0917 26.87L 62.0917 25.37ZM 61.238 25.2854C 61.0454 25.2559 60.975 25.2284 60.8617 25.136L 59.9617 26.336C 60.2324 26.5316 60.6259 26.6961 60.9773 26.7626L 61.238 25.2854ZM 60.8617 25.136C 60.7551 25.0669 60.7369 25.0381 60.6819 24.8727L 59.2774 25.3993C 59.4144 25.7459 59.6842 26.1171 59.9617 26.336L 60.8617 25.136ZM 60.6819 24.8727C 60.6103 24.6942 60.5838 24.4908 60.5857 24.128L 59.0857 24.128C 59.0875 24.5972 59.157 25.0658 59.2774 25.3993L 60.6819 24.8727ZM 60.5857 24.128L 60.5857 14.816L 59.0857 14.816L 59.0857 24.128L 60.5857 24.128ZM 59.8357 14.066L 56.2357 14.066L 56.2357 15.566L 59.8357 15.566L 59.8357 14.066ZM 69.4668 15.392L 68.7744 15.1035L 68.7704 15.1135L 69.4668 15.392ZM 71.0748 12.992L 71.592 13.5351L 71.5923 13.5348L 71.0748 12.992ZM 73.4748 11.504L 73.2194 10.7988L 73.2155 10.8002L 73.4748 11.504ZM 79.4508 11.504L 79.1915 12.2078L 79.1955 12.2092L 79.4508 11.504ZM 81.8748 12.992L 81.3572 13.5348L 81.364 13.5411L 81.8748 12.992ZM 83.4828 15.392L 82.7864 15.6706L 82.7905 15.6805L 83.4828 15.392ZM 83.5068 22.04L 84.2031 22.3185L 84.2047 22.3146L 83.5068 22.04ZM 81.8988 24.464L 82.416 25.0071L 82.4163 25.0068L 81.8988 24.464ZM 79.4988 25.928L 79.7541 26.6332L 79.4988 25.928ZM 73.4508 25.928L 73.1848 26.6293L 73.1955 26.6332L 73.4508 25.928ZM 69.4668 21.992L 68.7704 22.2705L 68.7704 22.2705L 69.4668 21.992ZM 78.8748 15.464L 78.2891 15.9326L 78.2955 15.9403L 78.8748 15.464ZM 74.0988 15.464L 73.5258 14.9801L 73.5248 14.9813L 74.0988 15.464ZM 69.6408 18.704C 69.638 17.5205 69.8043 16.5566 70.1631 15.6705L 68.7704 15.1135C 68.3612 16.1474 68.1436 17.3915 68.1408 18.704L 69.6408 18.704ZM 70.1591 15.6805C 70.5276 14.7867 70.9764 14.1152 71.592 13.5351L 70.5575 12.4489C 69.8292 13.1488 69.2059 14.0773 68.7745 15.1035L 70.1591 15.6805ZM 71.5923 13.5348C 72.2216 12.9293 72.8917 12.514 73.7341 12.2078L 73.2155 10.8002C 72.2339 11.166 71.304 11.7427 70.5572 12.4492L 71.5923 13.5348ZM 73.7301 12.2092C 74.5934 11.8934 75.4651 11.7474 76.4748 11.75L 76.4748 10.25C 75.3404 10.2526 74.2122 10.4426 73.2195 10.7988L 73.7301 12.2092ZM 76.4748 11.75C 77.4839 11.7474 78.3457 11.8927 79.1915 12.2078L 79.7101 10.8002C 78.7319 10.4433 77.6096 10.2526 76.4748 10.25L 76.4748 11.75ZM 79.1955 12.2092C 80.0533 12.5157 80.7293 12.9303 81.3572 13.5348L 82.3923 12.4492C 81.6443 11.7417 80.7043 11.1643 79.7061 10.7988L 79.1955 12.2092ZM 81.364 13.5411C 81.992 14.1185 82.4354 14.7819 82.7864 15.6705L 84.1791 15.1135C 83.7621 14.0821 83.1335 13.1455 82.3856 12.4429L 81.364 13.5411ZM 82.7905 15.6805C 83.1635 16.5643 83.3358 17.5231 83.3328 18.704L 84.8328 18.704C 84.8298 17.3889 84.6021 16.1397 84.1751 15.1035L 82.7905 15.6805ZM 83.3328 18.704C 83.3355 19.888 83.1685 20.8619 82.8089 21.7654L 84.2047 22.3146C 84.613 21.2662 84.83 20.016 84.8328 18.704L 83.3328 18.704ZM 82.8104 21.7615C 82.4586 22.6516 82.0119 23.3263 81.3812 23.9212L 82.4163 25.0068C 83.1616 24.2897 83.7869 23.3484 84.2031 22.3185L 82.8104 21.7615ZM 81.3815 23.9209C 80.7703 24.5089 80.1022 24.9159 79.2435 25.2228L 79.7541 26.6332C 80.7514 26.2681 81.6833 25.6991 82.416 25.0071L 81.3815 23.9209ZM 79.2435 25.2228C 78.3807 25.5385 77.5009 25.6846 76.4748 25.682L 76.4748 27.182C 77.6246 27.1794 78.7609 26.9895 79.7541 26.6332L 79.2435 25.2228ZM 76.4748 25.682C 75.4486 25.6846 74.5689 25.5385 73.7061 25.2228L 73.1955 26.6332C 74.1887 26.9895 75.3249 27.1794 76.4748 27.182L 76.4748 25.682ZM 73.7168 25.2268C 72.8573 24.9048 72.1872 24.4831 71.5747 23.8793L 70.5269 24.9527C 71.2584 25.6609 72.1882 26.2472 73.1848 26.6292L 73.7168 25.2268ZM 71.5747 23.8793C 70.9581 23.2837 70.5161 22.6059 70.1631 21.7135L 68.7704 22.2705C 69.1854 23.2981 69.7995 24.2363 70.5269 24.9527L 71.5747 23.8793ZM 70.1631 21.7135C 69.8042 20.8269 69.638 19.871 69.6408 18.704L 68.1408 18.704C 68.1436 20.001 68.3614 21.2371 68.7704 22.2705L 70.1631 21.7135ZM 72.4608 18.704C 72.4608 20.2414 72.77 21.5329 73.5195 22.4443L 74.6781 21.4917C 74.2435 20.9631 73.9608 20.0786 73.9608 18.704L 72.4608 18.704ZM 73.5195 22.4443C 74.2641 23.35 75.275 23.798 76.4748 23.798L 76.4748 22.298C 75.6906 22.298 75.1175 22.026 74.6781 21.4917L 73.5195 22.4443ZM 76.4748 23.798C 77.6863 23.798 78.7069 23.3531 79.4541 22.4443L 78.2955 21.4917C 77.8586 22.0229 77.2793 22.298 76.4748 22.298L 76.4748 23.798ZM 79.4541 22.4443C 80.2035 21.5329 80.5128 20.2414 80.5128 18.704L 79.0128 18.704C 79.0128 20.0786 78.73 20.9631 78.2955 21.4917L 79.4541 22.4443ZM 80.5128 18.704C 80.5128 17.1802 80.2025 15.8979 79.4541 14.9877L 78.2955 15.9403C 78.731 16.4701 79.0128 17.3478 79.0128 18.704L 80.5128 18.704ZM 79.4604 14.9955C 78.7276 14.0794 77.7103 13.634 76.4988 13.634L 76.4988 15.134C 77.3032 15.134 77.87 15.4086 78.2891 15.9325L 79.4604 14.9955ZM 76.4988 13.634C 75.2992 13.634 74.2846 14.0815 73.5258 14.9801L 74.6718 15.9479C 75.1289 15.4065 75.7144 15.134 76.4988 15.134L 76.4988 13.634ZM 73.5248 14.9813C 72.7693 15.8797 72.4608 17.1685 72.4608 18.704L 73.9608 18.704C 73.9608 17.3275 74.2443 16.4563 74.6728 15.9467L 73.5248 14.9813ZM 93.2058 15.008L 92.8954 14.3252L 92.5441 14.4849L 92.4698 14.8637L 93.2058 15.008ZM 94.0218 14.744L 94.2111 15.4697L 94.2215 15.467L 94.2318 15.464L 94.0218 14.744ZM 96.8538 14.888L 96.5379 15.5683L 96.5481 15.573L 96.5583 15.5774L 96.8538 14.888ZM 97.6698 15.752L 96.9421 15.9339L 96.9454 15.9463L 97.6698 15.752ZM 98.1498 17.6L 97.4222 17.7819L 97.4252 17.794L 97.4286 17.806L 98.1498 17.6ZM 98.6058 19.232L 97.8822 19.4293L 97.8838 19.4351L 98.6058 19.232ZM 99.0138 20.768L 98.2862 20.9499L 98.2888 20.9605L 98.2918 20.9711L 99.0138 20.768ZM 99.4218 22.376L 98.6906 22.5431L 98.8239 23.126L 99.4218 23.126L 99.4218 22.376ZM 99.5418 22.376L 99.5418 23.126L 100.189 23.126L 100.284 22.4855L 99.5418 22.376ZM 99.9258 19.592L 100.67 19.6867L 100.67 19.685L 99.9258 19.592ZM 100.238 16.976L 100.983 17.0604L 100.983 17.0588L 100.238 16.976ZM 100.526 14.432L 101.271 14.518L 101.271 14.5164L 100.526 14.432ZM 100.814 11.864L 100.444 11.2117L 100.111 11.4007L 100.068 11.7812L 100.814 11.864ZM 104.774 14.552L 104.029 14.4612L 104.028 14.4693L 104.028 14.4774L 104.774 14.552ZM 104.486 16.712L 103.745 16.5935L 103.744 16.6007L 103.743 16.608L 104.486 16.712ZM 104.078 19.232L 103.34 19.0978L 103.34 19.0978L 104.078 19.232ZM 103.022 23.936L 102.302 23.7253L 102.299 23.7371L 103.022 23.936ZM 102.518 25.424L 103.03 25.9723L 103.139 25.8704L 103.201 25.7344L 102.518 25.424ZM 101.342 25.976L 101.534 26.701L 101.534 26.701L 101.342 25.976ZM 97.7418 25.904L 97.4595 26.5988L 97.4724 26.6041L 97.4855 26.6088L 97.7418 25.904ZM 96.8058 25.04L 97.5234 24.8216L 97.5191 24.8082L 96.8058 25.04ZM 96.1338 22.76L 96.8574 22.5627L 96.8574 22.5627L 96.1338 22.76ZM 95.3658 19.856L 96.0921 19.6689L 94.6326 19.6981L 95.3658 19.856ZM 94.6698 22.904L 93.9408 22.7276L 93.9408 22.7276L 94.6698 22.904ZM 94.0218 25.424L 94.5335 25.9723L 94.6875 25.8285L 94.7442 25.6256L 94.0218 25.424ZM 92.9418 25.976L 92.7263 25.2576L 92.7263 25.2576L 92.9418 25.976ZM 89.3898 25.904L 89.135 26.6094L 89.1467 26.6136L 89.1584 26.6174L 89.3898 25.904ZM 88.2618 25.04L 88.9385 24.7164L 88.9326 24.7046L 88.2618 25.04ZM 87.7818 23.768L 87.0591 23.9687L 87.0625 23.9809L 87.0663 23.9929L 87.7818 23.768ZM 87.2778 21.824L 86.5483 21.9984L 86.5492 22.0021L 87.2778 21.824ZM 86.7258 19.448L 85.9913 19.6004L 85.9943 19.6136L 86.7258 19.448ZM 86.2218 16.904L 85.4822 17.0296L 85.4848 17.0431L 86.2218 16.904ZM 85.8138 14.432L 85.0728 14.5482L 85.0732 14.5505L 85.8138 14.432ZM 85.5258 12.2L 85.0154 11.6504L 84.744 11.9024L 84.7792 12.2711L 85.5258 12.2ZM 86.4618 11.624L 86.7638 12.3105L 86.7638 12.3105L 86.4618 11.624ZM 89.2458 11.768L 88.8123 12.38L 88.8266 12.3902L 88.8415 12.3997L 89.2458 11.768ZM 89.9898 13.088L 89.2485 13.202L 89.2488 13.2042L 89.9898 13.088ZM 90.6138 17.168L 89.8717 17.2771L 89.8734 17.2878L 90.6138 17.168ZM 91.0218 19.856L 90.2787 19.9573L 90.28 19.9669L 90.2815 19.9765L 91.0218 19.856ZM 91.4058 22.376L 90.6724 22.5331L 90.7995 23.126L 91.4058 23.126L 91.4058 22.376ZM 91.5258 22.376L 91.5258 23.126L 92.1258 23.126L 92.2575 22.5406L 91.5258 22.376ZM 91.9338 20.6L 92.6638 20.7718L 92.6638 20.7718L 91.9338 20.6ZM 92.3178 18.968L 91.5914 18.7812L 91.5895 18.7887L 91.5877 18.7962L 92.3178 18.968ZM 92.7498 17.192L 93.4806 17.3606L 93.4815 17.3566L 92.7498 17.192ZM 93.5161 15.6908C 93.6528 15.6273 93.864 15.5599 94.2111 15.4697L 93.8325 14.0183C 93.4436 14.1201 93.1107 14.2287 92.8954 14.3252L 93.5161 15.6908ZM 94.2318 15.464C 94.5653 15.3648 94.844 15.324 95.1738 15.326L 95.1738 13.826C 94.7355 13.828 94.2463 13.8992 93.8118 14.024L 94.2318 15.464ZM 95.1738 15.326C 95.777 15.3228 96.1776 15.3944 96.5379 15.5683L 97.1696 14.2077C 96.634 13.9656 95.9145 13.8292 95.1738 13.826L 95.1738 15.326ZM 96.5583 15.5774C 96.8463 15.7008 96.9162 15.83 96.9422 15.9339L 98.3974 15.5701C 98.2314 14.906 97.7572 14.4592 97.1492 14.1986L 96.5583 15.5774ZM 96.9454 15.9463C 97.1206 16.5994 97.279 17.2092 97.4222 17.7819L 98.8774 17.4181C 98.7325 16.8388 98.5709 16.2166 98.3942 15.5577L 96.9454 15.9463ZM 97.4286 17.806C 97.588 18.3639 97.7388 18.9036 97.8822 19.4293L 99.3294 19.0347C 99.1847 18.5044 99.0315 17.9561 98.8709 17.394L 97.4286 17.806ZM 97.8838 19.4351C 98.0263 19.9418 98.1595 20.4432 98.2862 20.9499L 99.7414 20.5861C 99.612 20.0688 99.4732 19.5462 99.3278 19.0289L 97.8838 19.4351ZM 98.2918 20.9711C 98.4332 21.4738 98.5647 21.9918 98.6906 22.5431L 100.153 22.2089C 100.023 21.6402 99.8823 21.0862 99.7358 20.5649L 98.2918 20.9711ZM 99.4218 23.126L 99.5418 23.126L 99.5418 21.626L 99.4218 21.626L 99.4218 23.126ZM 100.284 22.4855C 100.428 21.506 100.557 20.5706 100.67 19.6867L 99.1818 19.4973C 99.0703 20.3734 98.9433 21.294 98.7998 22.2665L 100.284 22.4855ZM 100.67 19.685C 100.782 18.7869 100.887 17.9106 100.983 17.0604L 99.4925 16.8916C 99.3968 17.7374 99.2933 18.6051 99.1816 19.499L 100.67 19.685ZM 100.983 17.0588C 101.079 16.1956 101.175 15.3492 101.271 14.518L 99.7807 14.346C 99.6846 15.1788 99.5885 16.0284 99.4924 16.8932L 100.983 17.0588ZM 101.271 14.5164C 101.367 13.668 101.463 12.8112 101.559 11.9468L 100.068 11.7812C 99.9724 12.6448 99.8765 13.5 99.7805 14.3476L 101.271 14.5164ZM 101.184 12.5163C 101.69 12.2222 102.135 12.1037 102.71 12.11L 102.71 10.61C 101.941 10.6163 101.122 10.8338 100.444 11.2117L 101.184 12.5163ZM 102.71 12.11C 103.21 12.1044 103.529 12.1817 103.863 12.3892L 104.628 11.0988C 104.099 10.7943 103.393 10.6156 102.71 10.61L 102.71 12.11ZM 103.863 12.3892C 104.016 12.4799 104.144 12.6315 104.144 13.04L 105.644 13.04C 105.644 12.2325 105.339 11.5201 104.628 11.0988L 103.863 12.3892ZM 104.144 13.04C 104.144 13.3623 104.108 13.8209 104.029 14.4612L 105.518 14.6428C 105.6 13.9711 105.643 13.4217 105.644 13.04L 104.144 13.04ZM 104.028 14.4774C 103.965 15.1051 103.872 15.8032 103.745 16.5935L 105.226 16.8305C 105.356 16.0208 105.455 15.2789 105.52 14.6266L 104.028 14.4774ZM 103.743 16.608C 103.632 17.4001 103.499 18.225 103.34 19.0978L 104.816 19.3662C 104.977 18.479 105.115 17.6239 105.229 16.816L 103.743 16.608ZM 103.34 19.0978C 103.181 19.9714 103.016 20.7979 102.841 21.5909L 104.306 21.9131C 104.484 21.1061 104.654 20.2526 104.816 19.3662L 103.34 19.0978ZM 102.841 21.5909C 102.668 22.3795 102.49 23.0827 102.302 23.7253L 103.742 24.1467C 103.937 23.4773 104.128 22.7245 104.306 21.9131L 102.841 21.5909ZM 102.299 23.7371C 102.129 24.3562 101.98 24.7962 101.835 25.1136L 103.201 25.7344C 103.375 25.3478 103.563 24.7958 103.745 24.1349L 102.299 23.7371ZM 102.006 24.8757C 101.9 24.975 101.649 25.1189 101.15 25.251L 101.534 26.701C 102.123 26.5451 102.656 26.321 103.03 25.9723L 102.006 24.8757ZM 101.15 25.251C 100.654 25.384 100.19 25.4435 99.6618 25.442L 99.6618 26.942C 100.286 26.9405 100.942 26.856 101.534 26.701L 101.15 25.251ZM 99.6618 25.442C 98.9656 25.4441 98.4545 25.3691 97.9981 25.1992L 97.4855 26.6088C 98.0851 26.8229 98.854 26.9399 99.6618 26.942L 99.6618 25.442ZM 98.0241 25.2092C 97.6264 25.0476 97.5445 24.8912 97.5233 24.8216L 96.0883 25.2584C 96.2911 25.9248 96.8332 26.3444 97.4595 26.5988L 98.0241 25.2092ZM 97.5191 24.8082C 97.3142 24.1781 97.0953 23.4353 96.8574 22.5627L 95.4102 22.9573C 95.6523 23.8447 95.8814 24.6219 96.0925 25.2718L 97.5191 24.8082ZM 96.8574 22.5627C 96.6181 21.6855 96.3635 20.7226 96.0921 19.6689L 94.6395 20.0431C 94.9121 21.1014 95.1695 22.0745 95.4102 22.9573L 96.8574 22.5627ZM 94.6326 19.6981C 94.4096 20.7336 94.1797 21.7403 93.9408 22.7276L 95.3987 23.0804C 95.6399 22.0837 95.874 21.0584 96.099 20.0139L 94.6326 19.6981ZM 93.9408 22.7276C 93.7021 23.7144 93.4894 24.5418 93.2994 25.2224L 94.7442 25.6256C 94.9382 24.9302 95.1575 24.0776 95.3988 23.0804L 93.9408 22.7276ZM 93.51 24.8757C 93.3871 24.9904 93.1486 25.1309 92.7263 25.2576L 93.1573 26.6944C 93.6949 26.5331 94.1764 26.3056 94.5335 25.9723L 93.51 24.8757ZM 92.7263 25.2576C 92.3029 25.387 91.883 25.4437 91.3578 25.442L 91.3578 26.942C 91.9846 26.9403 92.6207 26.853 93.1573 26.6944L 92.7263 25.2576ZM 91.3578 25.442C 90.6922 25.444 90.1524 25.3657 89.6212 25.1906L 89.1584 26.6174C 89.8112 26.8263 90.5833 26.94 91.3578 26.942L 91.3578 25.442ZM 89.6445 25.1986C 89.1623 25.0244 88.995 24.8348 88.9384 24.7164L 87.5852 25.3636C 87.8806 25.9812 88.4653 26.3676 89.135 26.6094L 89.6445 25.1986ZM 88.9326 24.7046C 88.8049 24.4515 88.6667 24.0831 88.4973 23.5431L 87.0663 23.9929C 87.2489 24.5729 87.4306 25.0525 87.591 25.3754L 88.9326 24.7046ZM 88.5044 23.5673C 88.3461 22.9975 88.1811 22.3608 88.0063 21.6459L 86.5492 22.0021C 86.7265 22.7272 86.8974 23.3865 87.0591 23.9687L 88.5044 23.5673ZM 88.0072 21.6496C 87.8318 20.9159 87.6488 20.1283 87.4573 19.2824L 85.9943 19.6136C 86.1868 20.4637 86.3718 21.2601 86.5483 21.9984L 88.0072 21.6496ZM 87.4601 19.2956C 87.2848 18.4509 87.1181 17.6096 86.9588 16.7649L 85.4848 17.0431C 85.6454 17.8944 85.8147 18.7491 85.9914 19.6004L 87.4601 19.2956ZM 86.9612 16.7784C 86.8175 15.9322 86.6821 15.1117 86.5544 14.3135L 85.0732 14.5505C 85.2015 15.3523 85.3381 16.1798 85.4824 17.0296L 86.9612 16.7784ZM 86.5547 14.3158C 86.4282 13.5099 86.3351 12.7884 86.2724 12.1289L 84.7792 12.2711C 84.8445 12.9556 84.9433 13.7221 85.0728 14.5482L 86.5547 14.3158ZM 86.0361 12.7496C 86.2037 12.5891 86.4102 12.4642 86.7638 12.3105L 86.1597 10.9375C 85.7134 11.1358 85.2959 11.3949 85.0154 11.6504L 86.0361 12.7496ZM 86.7638 12.3105C 87.089 12.1628 87.369 12.1062 87.7578 12.11L 87.7578 10.61C 87.2185 10.6138 86.6346 10.7332 86.1597 10.9375L 86.7638 12.3105ZM 87.7578 12.11C 88.2557 12.11 88.5875 12.2208 88.8123 12.38L 89.6793 11.156C 89.1361 10.7712 88.4759 10.61 87.7578 10.61L 87.7578 12.11ZM 88.8415 12.3997C 89.0052 12.5045 89.1739 12.7169 89.2485 13.202L 90.7311 12.974C 90.6137 12.2111 90.2863 11.5435 89.6501 11.1363L 88.8415 12.3997ZM 89.2488 13.2042C 89.5046 14.8348 89.7121 16.1913 89.8718 17.2771L 91.3558 17.0589C 91.1955 15.9687 90.9869 14.6052 90.7307 12.9718L 89.2488 13.2042ZM 89.8734 17.2878C 90.0488 18.3722 90.1834 19.2589 90.2787 19.9573L 91.7649 19.7547C 91.6681 19.0451 91.5307 18.1398 91.3542 17.0482L 89.8734 17.2878ZM 90.2815 19.9765C 90.3927 20.6596 90.4707 21.1819 90.5176 21.557L 92.006 21.371C 91.9568 20.9781 91.8748 20.4284 91.762 19.7355L 90.2815 19.9765ZM 90.5176 21.557C 90.5672 21.953 90.6204 22.2891 90.6724 22.5331L 92.1391 22.2189C 92.0951 22.0149 92.0524 21.743 92.006 21.371L 90.5176 21.557ZM 91.4058 23.126L 91.5258 23.126L 91.5258 21.626L 91.4058 21.626L 91.4058 23.126ZM 92.2575 22.5406C 92.4011 21.9023 92.5363 21.3139 92.6638 20.7718L 91.2037 20.4282C 91.0753 20.9741 90.9384 21.5697 90.7941 22.2114L 92.2575 22.5406ZM 92.6638 20.7718C 92.7918 20.2278 92.9198 19.6838 93.0478 19.1398L 91.5877 18.7962C 91.4597 19.3402 91.3317 19.8842 91.2037 20.4282L 92.6638 20.7718ZM 93.0442 19.1548C 93.1894 18.59 93.3356 17.989 93.4806 17.3606L 92.019 17.0234C 91.876 17.643 91.7342 18.226 91.5914 18.7812L 93.0442 19.1548ZM 93.4815 17.3566C 93.6267 16.711 93.7809 15.9728 93.9418 15.1523L 92.4698 14.8637C 92.3107 15.6752 92.1608 16.393 92.0181 17.0274L 93.4815 17.3566ZM 120.381 25.496L 120.911 26.0263L 121.131 25.8067L 121.131 25.496L 120.381 25.496ZM 119.397 26L 119.208 25.274L 119.192 25.2782L 119.176 25.2832L 119.397 26ZM 116.205 25.928L 115.967 26.6395L 115.967 26.6395L 116.205 25.928ZM 114.909 24.656L 114.235 24.9861L 114.238 24.9914L 114.909 24.656ZM 112.533 19.808L 111.857 20.1347L 111.859 20.1381L 112.533 19.808ZM 111.885 18.416L 111.195 18.7115L 111.199 18.7206L 111.885 18.416ZM 111.261 16.88L 111.96 16.6082L 111.739 16.04L 111.137 16.1402L 111.261 16.88ZM 111.117 16.904L 110.993 16.1642L 110.318 16.2767L 110.369 16.9594L 111.117 16.904ZM 111.213 19.544L 110.462 19.544L 110.463 19.5574L 111.213 19.544ZM 111.237 25.904L 111.434 26.6276L 111.987 26.4768L 111.987 25.904L 111.237 25.904ZM 110.421 26.048L 110.324 25.3043L 110.319 25.3049L 110.421 26.048ZM 107.757 25.76L 107.282 26.3405L 107.282 26.3405L 107.757 25.76ZM 107.349 25.184L 106.646 25.4473L 106.649 25.455L 106.652 25.4625L 107.349 25.184ZM 107.205 12.2L 106.59 11.7699L 106.455 11.9636L 106.455 12.2L 107.205 12.2ZM 108.237 11.48L 108.481 12.189L 108.481 12.189L 108.237 11.48ZM 111.405 11.528L 111.148 12.2328L 111.161 12.2374L 111.174 12.2416L 111.405 11.528ZM 112.701 12.776L 112.026 13.1048L 112.028 13.1087L 112.701 12.776ZM 115.101 17.624L 115.776 17.2973L 115.773 17.2913L 115.101 17.624ZM 115.749 19.04L 115.059 19.3355L 115.063 19.3446L 115.749 19.04ZM 116.373 20.552L 115.674 20.8238L 115.902 21.411L 116.52 21.2874L 116.373 20.552ZM 116.493 20.528L 116.64 21.2634L 117.289 21.1335L 117.24 20.4726L 116.493 20.528ZM 116.373 17.936L 115.623 17.9499L 116.373 17.936ZM 116.349 11.456L 116.151 10.7324L 115.599 10.8832L 115.599 11.456L 116.349 11.456ZM 117.141 11.312L 117.044 10.5683L 117.039 10.5689L 117.141 11.312ZM 119.829 11.624L 119.4 12.2397L 119.409 12.2461L 119.419 12.2522L 119.829 11.624ZM 119.85 24.9657C 119.752 25.0642 119.561 25.1825 119.208 25.274L 119.585 26.726C 120.096 26.5935 120.561 26.3758 120.911 26.0263L 119.85 24.9657ZM 119.176 25.2832C 118.822 25.3949 118.429 25.4435 117.885 25.442L 117.885 26.942C 118.524 26.9405 119.139 26.8611 119.617 26.7168L 119.176 25.2832ZM 117.885 25.442C 117.351 25.4443 116.91 25.3753 116.442 25.2165L 115.967 26.6395C 116.555 26.8327 117.234 26.9397 117.885 26.942L 117.885 25.442ZM 116.442 25.2165C 116.161 25.1229 115.858 24.8787 115.579 24.3206L 114.238 24.9914C 114.631 25.7773 115.192 26.3811 115.967 26.6395L 116.442 25.2165ZM 115.582 24.3259L 113.206 19.4779L 111.859 20.1381L 114.235 24.9861L 115.582 24.3259ZM 113.208 19.4813C 112.97 18.9904 112.759 18.5374 112.57 18.1114L 111.199 18.7206C 111.394 19.1586 111.615 19.6336 111.857 20.1347L 113.208 19.4813ZM 112.574 18.1206C 112.385 17.6791 112.181 17.1789 111.96 16.6082L 110.562 17.1518C 110.788 17.7331 111 18.2569 111.195 18.7114L 112.574 18.1206ZM 111.137 16.1402L 110.993 16.1642L 111.24 17.6438L 111.384 17.6198L 111.137 16.1402ZM 110.369 16.9594C 110.432 17.8093 110.463 18.6616 110.463 19.544L 111.963 19.544C 111.962 18.6344 111.929 17.7267 111.864 16.8486L 110.369 16.9594ZM 110.463 19.5574C 110.479 20.4501 110.487 21.3234 110.487 22.184L 111.987 22.184C 111.987 21.3166 111.978 20.4299 111.962 19.5306L 110.463 19.5574ZM 110.487 22.184L 110.487 25.904L 111.987 25.904L 111.987 22.184L 110.487 22.184ZM 111.039 25.1804C 110.897 25.2202 110.675 25.2587 110.324 25.3043L 110.518 26.7917C 110.902 26.7413 111.225 26.6838 111.434 26.6276L 111.039 25.1804ZM 110.319 25.3049C 109.992 25.3499 109.691 25.3704 109.365 25.37L 109.365 26.87C 109.742 26.8696 110.145 26.8421 110.522 26.7911L 110.319 25.3049ZM 109.365 25.37C 109.041 25.3706 108.795 25.3519 108.559 25.3094L 108.298 26.7866C 108.606 26.8401 108.984 26.8694 109.365 26.87L 109.365 25.37ZM 108.559 25.3094C 108.371 25.2813 108.322 25.2628 108.231 25.1795L 107.282 26.3405C 107.544 26.5452 107.942 26.7187 108.298 26.7866L 108.559 25.3094ZM 108.231 25.1795C 108.129 25.1044 108.103 25.0655 108.045 24.9055L 106.652 25.4625C 106.786 25.7825 107.032 26.1276 107.282 26.3405L 108.231 25.1795ZM 108.051 24.9207C 107.979 24.741 107.953 24.5456 107.955 24.2L 106.455 24.2C 106.457 24.6544 106.526 25.115 106.646 25.4473L 108.051 24.9207ZM 107.955 24.2L 107.955 12.2L 106.455 12.2L 106.455 24.2L 107.955 24.2ZM 107.819 12.6301C 107.931 12.4698 108.128 12.3108 108.481 12.189L 107.992 10.771C 107.417 10.9692 106.926 11.2902 106.59 11.7699L 107.819 12.6301ZM 108.481 12.189C 108.883 12.0474 109.256 11.9876 109.725 11.99L 109.725 10.49C 109.137 10.4924 108.518 10.5926 107.992 10.771L 108.481 12.189ZM 109.725 11.99C 110.253 11.9873 110.684 12.0609 111.148 12.2328L 111.661 10.8232C 111.069 10.6111 110.38 10.4927 109.725 10.49L 109.725 11.99ZM 111.174 12.2416C 111.474 12.3387 111.77 12.5785 112.026 13.1048L 113.375 12.4472C 112.991 11.6615 112.423 11.0693 111.635 10.8144L 111.174 12.2416ZM 112.028 13.1087L 114.428 17.9567L 115.773 17.2913L 113.373 12.4433L 112.028 13.1087ZM 114.425 17.9507C 114.662 18.4394 114.871 18.8958 115.059 19.3354L 116.438 18.7446C 116.242 18.2882 116.019 17.8006 115.776 17.2973L 114.425 17.9507ZM 115.063 19.3446C 115.251 19.7674 115.452 20.255 115.674 20.8238L 117.072 20.2802C 116.845 19.697 116.63 19.1766 116.434 18.7354L 115.063 19.3446ZM 116.52 21.2874L 116.64 21.2634L 116.345 19.7926L 116.225 19.8166L 116.52 21.2874ZM 117.24 20.4726C 117.177 19.619 117.138 18.7757 117.122 17.9221L 115.623 17.9499C 115.639 18.8243 115.68 19.709 115.745 20.5834L 117.24 20.4726ZM 117.122 17.9221C 117.106 17.0616 117.099 16.2045 117.099 15.344L 115.599 15.344C 115.599 16.2115 115.607 17.0824 115.623 17.9499L 117.122 17.9221ZM 117.099 15.344L 117.099 11.456L 115.599 11.456L 115.599 15.344L 117.099 15.344ZM 116.546 12.1796C 116.69 12.1394 116.906 12.1007 117.242 12.0551L 117.039 10.5689C 116.671 10.6193 116.359 10.6766 116.151 10.7324L 116.546 12.1796ZM 117.238 12.0557C 117.582 12.0104 117.893 11.9896 118.221 11.99L 118.221 10.49C 117.844 10.4904 117.435 10.5176 117.044 10.5683L 117.238 12.0557ZM 118.221 11.99C 118.852 11.99 119.211 12.1081 119.4 12.2397L 120.257 11.0083C 119.71 10.6279 118.997 10.49 118.221 10.49L 118.221 11.99ZM 119.419 12.2522C 119.451 12.2732 119.631 12.4338 119.631 13.16L 121.131 13.16C 121.131 12.3182 120.942 11.4548 120.238 10.9958L 119.419 12.2522ZM 119.631 13.16L 119.631 25.496L 121.131 25.496L 121.131 13.16L 119.631 13.16ZM 127.626 14.816L 126.994 15.2187L 127.215 15.566L 127.626 15.566L 127.626 14.816ZM 127.314 14.096L 126.599 14.3218L 126.599 14.3218L 127.314 14.096ZM 127.578 11.792L 127.063 11.2467L 127.056 11.2541L 127.048 11.2617L 127.578 11.792ZM 139.146 11.384L 139.779 10.9813L 139.558 10.634L 139.146 10.634L 139.146 11.384ZM 139.458 12.104L 138.743 12.3298L 138.743 12.3298L 139.458 12.104ZM 139.17 14.408L 138.655 13.8627L 138.648 13.8701L 138.64 13.8777L 139.17 14.408ZM 135.426 14.816L 135.426 14.066L 134.676 14.066L 134.676 14.816L 135.426 14.816ZM 135.426 25.904L 135.624 26.6276L 136.176 26.4768L 136.176 25.904L 135.426 25.904ZM 134.586 26.048L 134.493 25.3038L 134.489 25.3043L 134.586 26.048ZM 132.498 26.024L 132.661 25.2919L 132.645 25.2883L 132.629 25.2854L 132.498 26.024ZM 131.802 25.736L 131.352 26.336L 131.352 26.336L 131.802 25.736ZM 131.37 25.136L 132.073 24.8727L 132.073 24.8727L 131.37 25.136ZM 131.226 14.816L 131.976 14.816L 131.976 14.066L 131.226 14.066L 131.226 14.816ZM 128.259 14.4133C 128.177 14.2885 128.113 14.1376 128.029 13.8702L 126.599 14.3218C 126.708 14.6624 126.852 14.9915 126.994 15.2187L 128.259 14.4133ZM 128.029 13.8702C 127.949 13.6229 127.918 13.4162 127.92 13.136L 126.42 13.136C 126.422 13.5278 126.488 13.9611 126.599 14.3218L 128.029 13.8702ZM 127.92 13.136C 127.92 12.5925 128.043 12.3877 128.109 12.3223L 127.048 11.2617C 126.569 11.7403 126.42 12.4315 126.42 13.136L 127.92 13.136ZM 128.093 12.3373C 128.224 12.2142 128.399 12.134 128.682 12.134L 128.682 10.634C 128.07 10.634 127.509 10.8258 127.063 11.2467L 128.093 12.3373ZM 128.682 12.134L 139.146 12.134L 139.146 10.634L 128.682 10.634L 128.682 12.134ZM 138.514 11.7867C 138.596 11.9115 138.66 12.0624 138.743 12.3298L 140.173 11.8782C 140.065 11.5376 139.921 11.2085 139.779 10.9813L 138.514 11.7867ZM 138.743 12.3298C 138.824 12.5771 138.854 12.7838 138.852 13.064L 140.352 13.064C 140.35 12.6722 140.285 12.2389 140.173 11.8782L 138.743 12.3298ZM 138.852 13.064C 138.852 13.5976 138.726 13.7961 138.655 13.8627L 139.685 14.9533C 140.191 14.4759 140.352 13.7784 140.352 13.064L 138.852 13.064ZM 138.64 13.8777C 138.532 13.9858 138.375 14.066 138.09 14.066L 138.09 15.566C 138.702 15.566 139.265 15.3742 139.701 14.9383L 138.64 13.8777ZM 138.09 14.066L 135.426 14.066L 135.426 15.566L 138.09 15.566L 138.09 14.066ZM 134.676 14.816L 134.676 25.904L 136.176 25.904L 136.176 14.816L 134.676 14.816ZM 135.229 25.1804C 135.088 25.2198 134.86 25.2581 134.493 25.3038L 134.679 26.7922C 135.08 26.7419 135.413 26.6842 135.624 26.6276L 135.229 25.1804ZM 134.489 25.3043C 134.145 25.3496 133.826 25.3704 133.482 25.37L 133.482 26.87C 133.875 26.8696 134.291 26.8424 134.683 26.7917L 134.489 25.3043ZM 133.482 25.37C 133.151 25.3709 132.904 25.3473 132.661 25.2919L 132.336 26.7561C 132.668 26.8287 133.078 26.8691 133.482 26.87L 133.482 25.37ZM 132.629 25.2854C 132.436 25.2559 132.366 25.2284 132.252 25.136L 131.352 26.336C 131.623 26.5316 132.016 26.6961 132.368 26.7626L 132.629 25.2854ZM 132.252 25.136C 132.146 25.0669 132.128 25.0381 132.073 24.8727L 130.668 25.3993C 130.805 25.7459 131.075 26.1171 131.352 26.336L 132.252 25.136ZM 132.073 24.8727C 132.001 24.6942 131.974 24.4908 131.976 24.128L 130.476 24.128C 130.478 24.5972 130.548 25.0658 130.668 25.3993L 132.073 24.8727ZM 131.976 24.128L 131.976 14.816L 130.476 14.816L 130.476 24.128L 131.976 24.128ZM 131.226 14.066L 127.626 14.066L 127.626 15.566L 131.226 15.566L 131.226 14.066ZM 140.857 15.392L 140.165 15.1035L 140.161 15.1135L 140.857 15.392ZM 142.465 12.992L 142.983 13.5351L 142.983 13.5348L 142.465 12.992ZM 144.865 11.504L 144.61 10.7988L 144.606 10.8002L 144.865 11.504ZM 150.841 11.504L 150.582 12.2078L 150.586 12.2092L 150.841 11.504ZM 153.265 12.992L 152.748 13.5348L 152.755 13.5411L 153.265 12.992ZM 154.873 15.392L 154.177 15.6706L 154.181 15.6805L 154.873 15.392ZM 154.897 22.04L 155.594 22.3185L 155.595 22.3146L 154.897 22.04ZM 153.289 24.464L 153.807 25.0071L 153.807 25.0068L 153.289 24.464ZM 150.889 25.928L 151.145 26.6332L 150.889 25.928ZM 144.841 25.928L 144.575 26.6293L 144.586 26.6332L 144.841 25.928ZM 140.857 21.992L 140.161 22.2705L 140.161 22.2705L 140.857 21.992ZM 150.265 15.464L 149.68 15.9326L 149.686 15.9403L 150.265 15.464ZM 145.489 15.464L 144.916 14.9801L 144.915 14.9813L 145.489 15.464ZM 141.031 18.704C 141.029 17.5205 141.195 16.5566 141.554 15.6705L 140.161 15.1135C 139.752 16.1474 139.534 17.3915 139.531 18.704L 141.031 18.704ZM 141.55 15.6805C 141.918 14.7867 142.367 14.1152 142.983 13.5351L 141.948 12.4489C 141.22 13.1488 140.597 14.0773 140.165 15.1035L 141.55 15.6805ZM 142.983 13.5348C 143.612 12.9293 144.282 12.514 145.125 12.2078L 144.606 10.8002C 143.624 11.166 142.695 11.7427 141.948 12.4492L 142.983 13.5348ZM 145.121 12.2092C 145.984 11.8934 146.856 11.7474 147.865 11.75L 147.865 10.25C 146.731 10.2526 145.603 10.4426 144.61 10.7988L 145.121 12.2092ZM 147.865 11.75C 148.875 11.7474 149.736 11.8927 150.582 12.2078L 151.101 10.8002C 150.122 10.4433 149 10.2526 147.865 10.25L 147.865 11.75ZM 150.586 12.2092C 151.444 12.5157 152.12 12.9303 152.748 13.5348L 153.783 12.4492C 153.035 11.7417 152.095 11.1643 151.097 10.7988L 150.586 12.2092ZM 152.755 13.5411C 153.383 14.1185 153.826 14.7819 154.177 15.6705L 155.57 15.1135C 155.153 14.0821 154.524 13.1455 153.776 12.4429L 152.755 13.5411ZM 154.181 15.6805C 154.554 16.5643 154.726 17.5231 154.723 18.704L 156.223 18.704C 156.22 17.3889 155.993 16.1397 155.566 15.1035L 154.181 15.6805ZM 154.723 18.704C 154.726 19.888 154.559 20.8619 154.199 21.7654L 155.595 22.3146C 156.004 21.2662 156.221 20.016 156.223 18.704L 154.723 18.704ZM 154.201 21.7615C 153.849 22.6516 153.403 23.3263 152.772 23.9212L 153.807 25.0068C 154.552 24.2897 155.178 23.3484 155.594 22.3185L 154.201 21.7615ZM 152.772 23.9209C 152.161 24.5089 151.493 24.9159 150.634 25.2228L 151.145 26.6332C 152.142 26.2681 153.074 25.6991 153.807 25.0071L 152.772 23.9209ZM 150.634 25.2228C 149.771 25.5385 148.892 25.6846 147.865 25.682L 147.865 27.182C 149.015 27.1794 150.152 26.9895 151.145 26.6332L 150.634 25.2228ZM 147.865 25.682C 146.839 25.6846 145.96 25.5385 145.097 25.2228L 144.586 26.6332C 145.579 26.9895 146.716 27.1794 147.865 27.182L 147.865 25.682ZM 145.107 25.2268C 144.248 24.9048 143.578 24.4831 142.965 23.8793L 141.918 24.9527C 142.649 25.6609 143.579 26.2472 144.575 26.6292L 145.107 25.2268ZM 142.965 23.8793C 142.349 23.2837 141.907 22.6059 141.554 21.7135L 140.161 22.2705C 140.576 23.2981 141.19 24.2363 141.918 24.9527L 142.965 23.8793ZM 141.554 21.7135C 141.195 20.8269 141.029 19.871 141.031 18.704L 139.531 18.704C 139.534 20.001 139.752 21.2371 140.161 22.2705L 141.554 21.7135ZM 143.851 18.704C 143.851 20.2414 144.161 21.5329 144.91 22.4443L 146.069 21.4917C 145.634 20.9631 145.351 20.0786 145.351 18.704L 143.851 18.704ZM 144.91 22.4443C 145.655 23.35 146.666 23.798 147.865 23.798L 147.865 22.298C 147.081 22.298 146.508 22.026 146.069 21.4917L 144.91 22.4443ZM 147.865 23.798C 149.077 23.798 150.098 23.3531 150.845 22.4443L 149.686 21.4917C 149.249 22.0229 148.67 22.298 147.865 22.298L 147.865 23.798ZM 150.845 22.4443C 151.594 21.5329 151.903 20.2414 151.903 18.704L 150.403 18.704C 150.403 20.0786 150.121 20.9631 149.686 21.4917L 150.845 22.4443ZM 151.903 18.704C 151.903 17.1802 151.593 15.8979 150.845 14.9877L 149.686 15.9403C 150.122 16.4701 150.403 17.3478 150.403 18.704L 151.903 18.704ZM 150.851 14.9955C 150.118 14.0794 149.101 13.634 147.889 13.634L 147.889 15.134C 148.694 15.134 149.261 15.4086 149.68 15.9325L 150.851 14.9955ZM 147.889 13.634C 146.69 13.634 145.675 14.0815 144.916 14.9801L 146.062 15.9479C 146.52 15.4065 147.105 15.134 147.889 15.134L 147.889 13.634ZM 144.915 14.9813C 144.16 15.8797 143.851 17.1685 143.851 18.704L 145.351 18.704C 145.351 17.3275 145.635 16.4563 146.063 15.9467L 144.915 14.9813ZM 164.899 25.904L 165.096 26.6276L 165.649 26.4768L 165.649 25.904L 164.899 25.904ZM 164.083 26.048L 164.18 26.7917L 164.18 26.7917L 164.083 26.048ZM 161.347 25.76L 160.919 26.3757L 160.928 26.3821L 160.937 26.3882L 161.347 25.76ZM 160.795 20.936L 161.545 20.936L 161.545 20.7064L 161.416 20.5161L 160.795 20.936ZM 159.499 18.968L 160.129 18.5617L 160.129 18.5617L 159.499 18.968ZM 158.131 16.76L 157.487 17.1439L 157.487 17.1439L 158.131 16.76ZM 156.883 14.552L 156.218 14.8989L 156.221 14.9049L 156.883 14.552ZM 155.947 12.536L 155.339 12.0969L 155.099 12.4296L 155.249 12.8114L 155.947 12.536ZM 156.787 11.744L 156.377 11.1158L 156.371 11.12L 156.365 11.1243L 156.787 11.744ZM 159.643 11.768L 159.227 12.3921L 159.239 12.3997L 159.643 11.768ZM 160.771 13.208L 161.443 12.8742L 161.442 12.8726L 160.771 13.208ZM 162.763 17.216L 162.091 17.5498L 162.298 17.966L 162.763 17.966L 162.763 17.216ZM 162.907 17.216L 162.907 17.966L 163.391 17.966L 163.591 17.5247L 162.907 17.216ZM 163.483 15.872L 162.792 15.5798L 162.789 15.5866L 162.787 15.5935L 163.483 15.872ZM 163.987 14.648L 164.683 14.9266L 164.687 14.9172L 163.987 14.648ZM 164.491 13.376L 165.186 13.659L 165.189 13.6502L 164.491 13.376ZM 165.091 11.84L 164.756 11.1692L 164.497 11.2986L 164.392 11.5682L 165.091 11.84ZM 166.051 11.504L 166.217 12.2354L 166.217 12.2353L 166.051 11.504ZM 168.475 11.84L 168.01 12.428L 168.023 12.4387L 168.037 12.4487L 168.475 11.84ZM 168.955 13.856L 169.675 14.0676L 169.675 14.0676L 168.955 13.856ZM 168.403 15.104L 169.066 15.4549L 169.07 15.447L 168.403 15.104ZM 167.131 17.336L 166.486 16.9533L 166.481 16.9615L 167.131 17.336ZM 164.899 21.032L 164.262 20.6363L 164.149 20.8181L 164.149 21.032L 164.899 21.032ZM 164.702 25.1804C 164.559 25.2202 164.337 25.2587 163.986 25.3043L 164.18 26.7917C 164.565 26.7413 164.887 26.6838 165.096 26.6276L 164.702 25.1804ZM 163.986 25.3043C 163.642 25.3496 163.33 25.3704 163.003 25.37L 163.003 26.87C 163.38 26.8696 163.789 26.8424 164.18 26.7917L 163.986 25.3043ZM 163.003 25.37C 162.325 25.37 161.946 25.255 161.757 25.1318L 160.937 26.3882C 161.484 26.745 162.209 26.87 163.003 26.87L 163.003 25.37ZM 161.775 25.1443C 161.725 25.1092 161.545 24.9179 161.545 24.176L 160.045 24.176C 160.045 25.0341 160.233 25.8988 160.919 26.3757L 161.775 25.1443ZM 161.545 24.176L 161.545 20.936L 160.045 20.936L 160.045 24.176L 161.545 24.176ZM 161.416 20.5161C 161.019 19.9278 160.591 19.2786 160.129 18.5617L 158.869 19.3743C 159.335 20.0974 159.771 20.7602 160.174 21.3559L 161.416 20.5161ZM 160.129 18.5617C 159.669 17.8473 159.22 17.1226 158.775 16.3761L 157.487 17.1439C 157.938 17.9014 158.401 18.6487 158.869 19.3743L 160.129 18.5617ZM 158.775 16.3761C 158.332 15.6315 157.924 14.911 157.545 14.1991L 156.221 14.9049C 156.61 15.633 157.034 16.3845 157.487 17.1439L 158.775 16.3761ZM 157.548 14.2051C 157.172 13.4845 156.876 12.8483 156.645 12.2606L 155.249 12.8114C 155.498 13.4397 155.826 14.1475 156.218 14.8989L 157.548 14.2051ZM 156.555 12.9751C 156.719 12.7426 156.905 12.5685 157.21 12.3637L 156.365 11.1243C 155.965 11.3995 155.591 11.7534 155.339 12.0969L 156.555 12.9751ZM 157.197 12.3722C 157.461 12.1889 157.701 12.1276 158.131 12.134L 158.131 10.634C 157.505 10.6404 156.849 10.8191 156.377 11.1158L 157.197 12.3722ZM 158.131 12.134C 158.658 12.134 159.003 12.2424 159.227 12.392L 160.059 11.144C 159.515 10.7816 158.852 10.634 158.131 10.634L 158.131 12.134ZM 159.239 12.3997C 159.473 12.5494 159.773 12.8895 160.1 13.5434L 161.442 12.8726C 161.065 12.1185 160.613 11.4986 160.047 11.1363L 159.239 12.3997ZM 160.099 13.5418L 162.091 17.5498L 163.435 16.8822L 161.443 12.8742L 160.099 13.5418ZM 162.763 17.966L 162.907 17.966L 162.907 16.466L 162.763 16.466L 162.763 17.966ZM 163.591 17.5247C 163.818 17.0221 164.016 16.559 164.179 16.1505L 162.787 15.5935C 162.63 15.985 162.445 16.4179 162.224 16.9073L 163.591 17.5247ZM 164.174 16.1642C 164.351 15.7449 164.522 15.3301 164.683 14.9265L 163.291 14.3695C 163.132 14.7659 162.967 15.1671 162.792 15.5798L 164.174 16.1642ZM 164.687 14.9172C 164.846 14.5048 165.011 14.0876 165.186 13.659L 163.796 13.093C 163.619 13.5284 163.448 13.9592 163.287 14.3788L 164.687 14.9172ZM 165.189 13.6502C 165.365 13.2016 165.566 12.6884 165.79 12.1118L 164.392 11.5682C 164.168 12.1436 163.969 12.6544 163.793 13.1018L 165.189 13.6502ZM 165.426 12.5108C 165.671 12.3867 165.906 12.3048 166.217 12.2354L 165.885 10.7727C 165.492 10.8632 165.087 11.0053 164.756 11.1692L 165.426 12.5108ZM 166.217 12.2353C 166.531 12.1631 166.783 12.1327 167.059 12.134L 167.059 10.634C 166.695 10.6353 166.275 10.6849 165.885 10.7727L 166.217 12.2353ZM 167.059 12.134C 167.503 12.1249 167.738 12.1975 168.01 12.428L 168.941 11.252C 168.444 10.8745 167.735 10.6431 167.059 10.634L 167.059 12.134ZM 168.037 12.4487C 168.2 12.5664 168.325 12.7543 168.325 13.16L 169.825 13.16C 169.825 12.3817 169.55 11.6896 168.913 11.2313L 168.037 12.4487ZM 168.325 13.16C 168.328 13.2881 168.305 13.4142 168.236 13.6444L 169.675 14.0676C 169.766 13.7538 169.822 13.4159 169.825 13.16L 168.325 13.16ZM 168.236 13.6444C 168.171 13.8699 168.014 14.2207 167.736 14.761L 169.07 15.447C 169.368 14.8673 169.579 14.3861 169.675 14.0676L 168.236 13.6444ZM 167.74 14.7531C 167.458 15.2868 167.043 16.015 166.486 16.9533L 167.776 17.7187C 168.339 16.769 168.772 16.0092 169.066 15.4549L 167.74 14.7531ZM 166.481 16.9615C 165.941 17.8989 165.203 19.1203 164.262 20.6363L 165.536 21.4277C 166.483 19.9037 167.233 18.6611 167.781 17.7105L 166.481 16.9615ZM 164.149 21.032L 164.149 25.904L 165.649 25.904L 165.649 21.032L 164.149 21.032ZM 175.176 20.216L 174.934 20.9259L 174.939 20.9275L 175.176 20.216ZM 173.256 19.496L 172.952 20.1814L 172.96 20.1849L 172.968 20.1883L 173.256 19.496ZM 171.768 18.584L 171.284 19.1565L 171.284 19.1565L 171.768 18.584ZM 170.784 17.336L 170.101 17.6447L 170.107 17.6582L 170.113 17.6714L 170.784 17.336ZM 172.008 12.272L 171.55 11.6785L 171.545 11.6819L 172.008 12.272ZM 179.856 11.648L 179.521 12.3188L 179.536 12.3264L 179.552 12.3334L 179.856 11.648ZM 180.864 12.416L 180.264 12.866L 180.27 12.8734L 180.276 12.8807L 180.864 12.416ZM 180.936 14.576L 181.56 14.992L 181.565 14.9843L 181.57 14.9765L 180.936 14.576ZM 180.24 15.32L 179.838 15.9527L 180.28 16.234L 180.696 15.9158L 180.24 15.32ZM 178.824 14.744L 178.611 15.4629L 178.62 15.4656L 178.629 15.468L 178.824 14.744ZM 175.296 14.792L 175.668 15.4432L 175.68 15.4366L 175.691 15.4297L 175.296 14.792ZM 175.104 16.136L 174.647 16.7305L 174.662 16.7419L 174.677 16.7526L 175.104 16.136ZM 176.04 16.544L 176.269 15.8298L 176.261 15.8272L 176.04 16.544ZM 177.312 16.952L 177.083 17.6662L 177.084 17.6665L 177.312 16.952ZM 180.768 18.8L 180.255 19.3465L 180.26 19.3518L 180.266 19.3569L 180.768 18.8ZM 180.384 25.136L 180.844 25.7285L 180.85 25.7242L 180.384 25.136ZM 173.592 26.192L 173.739 25.4566L 173.732 25.4551L 173.725 25.4538L 173.592 26.192ZM 171.936 25.688L 171.592 26.3542L 171.605 26.3612L 171.619 26.3676L 171.936 25.688ZM 170.832 24.824L 170.226 25.2651L 170.237 25.2808L 170.249 25.2959L 170.832 24.824ZM 170.856 22.448L 171.428 22.9337L 171.434 22.9269L 171.439 22.9199L 170.856 22.448ZM 171.744 21.68L 172.208 21.0903L 171.818 20.7838L 171.383 21.0228L 171.744 21.68ZM 173.376 22.592L 173.098 23.2884L 173.104 23.2907L 173.376 22.592ZM 177.168 22.616L 176.718 22.016L 176.718 22.016L 177.168 22.616ZM 177.264 21.056L 176.839 21.674L 176.853 21.6833L 176.867 21.692L 177.264 21.056ZM 176.184 20.552L 176.429 19.8429L 176.421 19.8405L 176.184 20.552ZM 175.418 19.5061C 174.725 19.2699 174.108 19.0386 173.545 18.8037L 172.968 20.1883C 173.556 20.4334 174.22 20.6821 174.934 20.9259L 175.418 19.5061ZM 173.561 18.8106C 173.029 18.5762 172.624 18.3282 172.253 18.0115L 171.284 19.1565C 171.745 19.5438 172.331 19.9038 172.952 20.1814L 173.561 18.8106ZM 172.253 18.0115C 171.892 17.7109 171.657 17.414 171.455 17.0006L 170.113 17.6714C 170.391 18.218 170.813 18.7531 171.284 19.1565L 172.253 18.0115ZM 171.468 17.0273C 171.276 16.6152 171.195 16.1709 171.198 15.536L 169.698 15.536C 169.701 16.3091 169.845 17.0648 170.101 17.6447L 171.468 17.0273ZM 171.198 15.536C 171.198 14.3986 171.618 13.5312 172.471 12.8621L 171.545 11.6819C 170.318 12.6448 169.698 13.9534 169.698 15.536L 171.198 15.536ZM 172.467 12.8655C 173.347 12.1855 174.635 11.798 176.424 11.798L 176.424 10.298C 174.437 10.298 172.782 10.7265 171.55 11.6785L 172.467 12.8655ZM 176.424 11.798C 177.084 11.7975 177.664 11.8408 178.224 11.9323L 178.464 10.4517C 177.84 10.3512 177.14 10.2985 176.424 10.298L 176.424 11.798ZM 178.224 11.9323C 178.768 12.0188 179.163 12.137 179.521 12.3188L 180.192 10.9772C 179.717 10.743 179.105 10.5572 178.464 10.4517L 178.224 11.9323ZM 179.552 12.3334C 179.906 12.4853 180.092 12.6243 180.264 12.866L 181.464 11.966C 181.157 11.5677 180.67 11.1947 180.161 10.9626L 179.552 12.3334ZM 180.276 12.8807C 180.444 13.0763 180.484 13.2001 180.474 13.496L 181.974 13.496C 181.965 12.9599 181.764 12.3637 181.453 11.9513L 180.276 12.8807ZM 180.474 13.496C 180.481 13.8146 180.441 13.9717 180.302 14.1755L 181.57 14.9765C 181.816 14.5723 181.968 14.0094 181.974 13.496L 180.474 13.496ZM 180.312 14.16C 180.156 14.3982 180.009 14.556 179.785 14.7242L 180.696 15.9158C 181.016 15.668 181.332 15.3298 181.56 14.992L 180.312 14.16ZM 180.643 14.6873C 180.232 14.4296 179.656 14.1933 179.02 14.02L 178.629 15.468C 179.177 15.6147 179.544 15.7624 179.838 15.9527L 180.643 14.6873ZM 179.038 14.0251C 178.39 13.8348 177.635 13.7317 176.88 13.73L 176.88 15.23C 177.534 15.2283 178.074 15.3012 178.611 15.4629L 179.038 14.0251ZM 176.88 13.73C 176.119 13.73 175.418 13.8343 174.902 14.1543L 175.691 15.4297C 175.846 15.3337 176.201 15.23 176.88 15.23L 176.88 13.73ZM 174.924 14.1408C 174.428 14.4241 174.042 14.8873 174.042 15.536L 175.542 15.536C 175.542 15.53 175.543 15.5314 175.541 15.5369C 175.54 15.5425 175.538 15.5448 175.539 15.5426C 175.543 15.537 175.572 15.4984 175.668 15.4432L 174.924 14.1408ZM 174.042 15.536C 174.042 16.0328 174.274 16.4438 174.647 16.7305L 175.562 15.5415C 175.545 15.5291 175.537 15.5207 175.535 15.5173C 175.532 15.5142 175.533 15.515 175.536 15.52C 175.538 15.5251 175.54 15.5309 175.542 15.536C 175.543 15.5409 175.542 15.5415 175.542 15.536L 174.042 15.536ZM 174.677 16.7526C 174.947 16.9352 175.364 17.1193 175.82 17.2608L 176.261 15.8272C 175.885 15.7127 175.677 15.6248 175.531 15.5194L 174.677 16.7526ZM 175.811 17.2582L 177.083 17.6662L 177.541 16.2378L 176.269 15.8298L 175.811 17.2582ZM 177.084 17.6665C 178.525 18.1263 179.564 18.6971 180.255 19.3465L 181.282 18.2535C 180.373 17.3989 179.108 16.7377 177.54 16.2375L 177.084 17.6665ZM 180.266 19.3569C 180.898 19.9269 181.242 20.7179 181.242 21.824L 182.742 21.824C 182.742 20.3701 182.271 19.1451 181.271 18.2431L 180.266 19.3569ZM 181.242 21.824C 181.242 22.9534 180.812 23.8412 179.919 24.5478L 180.85 25.7242C 182.1 24.7348 182.742 23.4146 182.742 21.824L 181.242 21.824ZM 179.924 24.5435C 179.038 25.2317 177.654 25.634 175.656 25.634L 175.656 27.134C 177.819 27.134 179.587 26.7043 180.844 25.7285L 179.924 24.5435ZM 175.656 25.634C 174.955 25.6348 174.341 25.5779 173.739 25.4566L 173.445 26.9274C 174.124 27.0621 174.886 27.1332 175.656 27.134L 175.656 25.634ZM 173.725 25.4538C 173.144 25.3509 172.685 25.2117 172.253 25.0084L 171.619 26.3676C 172.148 26.6123 172.793 26.8091 173.46 26.9302L 173.725 25.4538ZM 172.281 25.0218C 171.877 24.8169 171.63 24.6253 171.415 24.3521L 170.249 25.2959C 170.578 25.6947 171.067 26.0791 171.592 26.3542L 172.281 25.0218ZM 171.439 24.3829C 171.245 24.1328 171.189 23.9563 171.198 23.624L 169.698 23.624C 169.707 24.1877 169.907 24.8112 170.226 25.2651L 171.439 24.3829ZM 171.198 23.624C 171.188 23.2846 171.235 23.1402 171.428 22.9337L 170.285 21.9623C 169.933 22.3958 169.709 23.0354 169.698 23.624L 171.198 23.624ZM 171.439 22.9199C 171.667 22.6336 171.853 22.4716 172.106 22.3372L 171.383 21.0228C 170.996 21.2404 170.589 21.5904 170.273 21.9761L 171.439 22.9199ZM 171.281 22.2697C 171.776 22.6561 172.413 23.0129 173.098 23.2884L 173.655 21.8956C 173.059 21.6591 172.608 21.4079 172.208 21.0903L 171.281 22.2697ZM 173.104 23.2907C 173.829 23.5698 174.678 23.723 175.512 23.726L 175.512 22.226C 174.811 22.229 174.236 22.1262 173.649 21.8933L 173.104 23.2907ZM 175.512 23.726C 176.327 23.726 177.092 23.6104 177.618 23.216L 176.718 22.016C 176.604 22.1016 176.266 22.226 175.512 22.226L 175.512 23.726ZM 177.618 23.216C 178.075 22.8736 178.398 22.3906 178.398 21.776L 176.898 21.776C 176.898 21.8014 176.902 21.8784 176.718 22.016L 177.618 23.216ZM 178.398 21.776C 178.398 21.2161 178.152 20.7267 177.662 20.42L 176.867 21.692C 176.883 21.7021 176.89 21.7088 176.891 21.7104C 176.892 21.7117 176.892 21.7109 176.891 21.7089C 176.887 21.7026 176.898 21.7174 176.898 21.776L 178.398 21.776ZM 177.689 20.438C 177.381 20.2289 176.929 20.0167 176.429 19.843L 175.94 21.261C 176.367 21.4073 176.636 21.5311 176.839 21.674L 177.689 20.438ZM 176.421 19.8405L 175.413 19.5045L 174.939 20.9275L 175.947 21.2635L 176.421 19.8405Z"/>
</defs>
</svg>
