<svg width="377" height="750" viewBox="0 0 377 750" version="1.1" xmlns="http://www.w3.org/2000/svg" xmlns:xlink="http://www.w3.org/1999/xlink">
<title>Vector</title>
<desc>Created using Figma</desc>
<g id="Canvas" transform="translate(-7 235)">
<g id="Vector">
<use xlink:href="#path0_fill" transform="translate(7 -235)" fill="#FFFFFF"/>
<use xlink:href="#path1_fill" transform="translate(7 -235)" fill="#FFFFFF"/>
<use xlink:href="#path2_fill" transform="translate(7 -235)" fill="#FFFFFF"/>
<use xlink:href="#path3_fill" transform="translate(7 -235)" fill="#FFFFFF"/>
<use xlink:href="#path4_fill" transform="translate(7 -235)" fill="#FFFFFF"/>
</g>
</g>
<defs>
<path id="path0_fill" fill-rule="evenodd" d="M 20.5 1.5C 20.5 16 12 20.5 1.5 20.5L 1.50001 243.486C 1.49998 311.085 1.50001 307.506 1.50001 380.138C 1.50001 452.773 1.50001 433.53 1.50001 506.515L 1.5 729.5C 11.5 729.5 21 734 21 748.5L 122.655 748.5C 163.046 748.5 151.031 748.5 187.396 748.5C 223.762 748.5 202.47 748.5 254.345 748.5L 356 748.5C 356 736.5 364 729 375.5 729L 375.5 506.515C 375.5 457.023 375.5 444.942 375.5 372.308C 375.5 299.675 375.5 283.321 375.5 243.486L 375.5 21C 366.5 21 355.5 15.5 355.5 1.5L 254.345 1.5C 218.317 1.5 224.535 1.5 188.169 1.5C 151.804 1.5 155.703 1.5 122.655 1.5L 20.5 1.5Z"/>
<path id="path1_fill" d="M 377 6.5C 377 10.0899 374.09 13 370.5 13C 366.91 13 364 10.0899 364 6.5C 364 2.91015 366.91 0 370.5 0C 374.09 0 377 2.91015 377 6.5Z"/>
<path id="path2_fill" d="M 13 6.5C 13 10.0899 10.0899 13 6.5 13C 2.91015 13 0 10.0899 0 6.5C 0 2.91015 2.91015 0 6.5 0C 10.0899 0 13 2.91015 13 6.5Z"/>
<path id="path3_fill" d="M 377 743.5C 377 747.09 374.09 750 370.5 750C 366.91 750 364 747.09 364 743.5C 364 739.91 366.91 737 370.5 737C 374.09 737 377 739.91 377 743.5Z"/>
<path id="path4_fill" d="M 13 743.5C 13 747.09 10.0899 750 6.5 750C 2.91015 750 0 747.09 0 743.5C 0 739.91 2.91015 737 6.5 737C 10.0899 737 13 739.91 13 743.5Z"/>
</defs>
</svg>
